<svg xmlns="http://www.w3.org/2000/svg" version="1.1" xmlns:xlink="http://www.w3.org/1999/xlink" width="26" height="13"><svg width="26" height="13" viewBox="0 0 26 13" fill="black" xmlns="http://www.w3.org/2000/svg">
 <style>
  @media (prefers-color-scheme: dark) {
    .background { fill: white}
  }
  </style>
<path d="M22.7001 9.76806C22.2281 9.76806 21.8561 9.58806 21.5841 9.22806C21.3121 8.86806 21.1761 8.40006 21.1761 7.82406C21.1761 7.61606 21.2041 7.39606 21.2601 7.16406C21.3241 6.92406 21.4041 6.70806 21.5001 6.51606C21.4441 6.46006 21.4001 6.38406 21.3681 6.28806C21.3361 6.18406 21.3201 6.05606 21.3201 5.90406C21.3201 5.43206 21.4001 5.00006 21.5601 4.60806C21.7201 4.21606 21.9321 3.87606 22.1961 3.58806C22.4601 3.29206 22.7521 3.06406 23.0721 2.90406C23.4001 2.74406 23.7321 2.66406 24.0681 2.66406C24.6201 2.66406 25.0681 2.86406 25.4121 3.26406C25.7561 3.65606 25.9281 4.25606 25.9281 5.06406C25.9281 5.48806 25.8641 5.92006 25.7361 6.36006C25.6161 6.80006 25.4481 7.22406 25.2321 7.63206C25.0241 8.04006 24.7801 8.40406 24.5001 8.72406C24.2281 9.04406 23.9361 9.30006 23.6241 9.49206C23.3201 9.67606 23.0121 9.76806 22.7001 9.76806ZM22.2921 6.10806C22.3401 6.17206 22.3641 6.25606 22.3641 6.36006C22.3641 6.48006 22.3401 6.60006 22.2921 6.72006C22.2521 6.84006 22.2081 7.00406 22.1601 7.21206C22.1121 7.42006 22.0881 7.71606 22.0881 8.10006C22.0881 8.48406 22.2401 8.67606 22.5441 8.67606C22.8801 8.67606 23.1921 8.54406 23.4801 8.28006C23.7681 8.00806 24.0241 7.66006 24.2481 7.23606C24.4721 6.81206 24.6441 6.36006 24.7641 5.88006C24.8921 5.39206 24.9561 4.93206 24.9561 4.50006C24.9561 4.22006 24.9041 4.02406 24.8001 3.91206C24.6961 3.79206 24.5081 3.73206 24.2361 3.73206C23.9561 3.73206 23.6641 3.82806 23.3601 4.02006C23.0641 4.20406 22.8161 4.45606 22.6161 4.77606C22.4161 5.09606 22.3161 5.45606 22.3161 5.85606C22.3161 5.94406 22.3081 6.02806 22.2921 6.10806Z" fill=""></path>
<path d="M14.1663 12.816C13.5503 12.816 13.0983 12.756 12.8103 12.636C12.5223 12.516 12.3783 12.356 12.3783 12.156C12.3783 12.028 12.4183 11.924 12.4983 11.844C12.5863 11.764 12.6943 11.724 12.8223 11.724C12.9583 11.724 13.1543 11.744 13.4103 11.784C13.6663 11.832 13.9183 11.856 14.1663 11.856C14.9903 11.856 15.6663 11.612 16.1943 11.124C16.7223 10.636 17.1263 9.88797 17.4063 8.87997C17.6863 7.86397 17.8743 6.56797 17.9703 4.99197C17.7303 5.47997 17.4583 5.96797 17.1543 6.45597C16.8583 6.93597 16.5383 7.37597 16.1943 7.77597C15.8583 8.16797 15.5103 8.48397 15.1503 8.72397C14.7903 8.96397 14.4343 9.08397 14.0823 9.08397C13.7463 9.08397 13.4983 8.99997 13.3383 8.83197C13.1863 8.66397 13.1103 8.38797 13.1103 8.00397C13.1103 7.65997 13.2063 7.29597 13.3983 6.91197C13.5903 6.51997 13.8463 6.12797 14.1663 5.73597C14.4863 5.34397 14.8383 4.97197 15.2223 4.61997C15.6063 4.25997 15.9903 3.94397 16.3743 3.67197C16.7663 3.39197 17.1303 3.17197 17.4663 3.01197C17.8023 2.85197 18.0743 2.77197 18.2823 2.77197C18.4903 2.77197 18.6503 2.84397 18.7623 2.98797C18.8743 3.13197 18.9303 3.40397 18.9303 3.80397C18.9303 4.73997 18.8983 5.65197 18.8343 6.53997C18.7783 7.41997 18.6623 8.23997 18.4863 8.99997C18.3103 9.75997 18.0463 10.424 17.6943 10.992C17.3503 11.568 16.8903 12.016 16.3143 12.336C15.7383 12.656 15.0223 12.816 14.1663 12.816ZM17.7543 3.81597C17.3543 4.07197 16.9423 4.35997 16.5183 4.67997C16.0943 4.99997 15.6983 5.33997 15.3303 5.69997C14.9703 6.05997 14.6783 6.43197 14.4543 6.81597C14.2303 7.19997 14.1183 7.58397 14.1183 7.96797C14.1183 8.08797 14.1943 8.14797 14.3463 8.14797C14.4663 8.14797 14.6303 8.05597 14.8383 7.87197C15.0543 7.67997 15.2943 7.42797 15.5583 7.11597C15.8223 6.79597 16.0903 6.44797 16.3623 6.07197C16.6423 5.68797 16.9023 5.29997 17.1423 4.90797C17.3823 4.51597 17.5863 4.15197 17.7543 3.81597Z" fill=""></path>
<path d="M8.8603 9.76806C8.3883 9.76806 8.0163 9.58806 7.7443 9.22806C7.4723 8.86806 7.3363 8.40006 7.3363 7.82406C7.3363 7.61606 7.3643 7.39606 7.4203 7.16406C7.4843 6.92406 7.5643 6.70806 7.6603 6.51606C7.6043 6.46006 7.5603 6.38406 7.5283 6.28806C7.4963 6.18406 7.4803 6.05606 7.4803 5.90406C7.4803 5.43206 7.5603 5.00006 7.7203 4.60806C7.8803 4.21606 8.0923 3.87606 8.3563 3.58806C8.6203 3.29206 8.9123 3.06406 9.2323 2.90406C9.5603 2.74406 9.8923 2.66406 10.2283 2.66406C10.7803 2.66406 11.2283 2.86406 11.5723 3.26406C11.9163 3.65606 12.0883 4.25606 12.0883 5.06406C12.0883 5.48806 12.0243 5.92006 11.8963 6.36006C11.7763 6.80006 11.6083 7.22406 11.3923 7.63206C11.1843 8.04006 10.9403 8.40406 10.6603 8.72406C10.3883 9.04406 10.0963 9.30006 9.7843 9.49206C9.4803 9.67606 9.1723 9.76806 8.8603 9.76806ZM8.4523 6.10806C8.5003 6.17206 8.5243 6.25606 8.5243 6.36006C8.5243 6.48006 8.5003 6.60006 8.4523 6.72006C8.4123 6.84006 8.3683 7.00406 8.3203 7.21206C8.2723 7.42006 8.2483 7.71606 8.2483 8.10006C8.2483 8.48406 8.4003 8.67606 8.7043 8.67606C9.0403 8.67606 9.3523 8.54406 9.6403 8.28006C9.9283 8.00806 10.1843 7.66006 10.4083 7.23606C10.6323 6.81206 10.8043 6.36006 10.9243 5.88006C11.0523 5.39206 11.1163 4.93206 11.1163 4.50006C11.1163 4.22006 11.0643 4.02406 10.9603 3.91206C10.8563 3.79206 10.6683 3.73206 10.3963 3.73206C10.1163 3.73206 9.8243 3.82806 9.5203 4.02006C9.2243 4.20406 8.9763 4.45606 8.7763 4.77606C8.5763 5.09606 8.4763 5.45606 8.4763 5.85606C8.4763 5.94406 8.4683 6.02806 8.4523 6.10806Z" fill=""></path>
<path d="M1.776 10.224C1.52 10.224 1.252 10.16 0.972 10.032C0.7 9.912 0.468 9.712 0.276 9.432C0.092 9.144 0 8.764 0 8.292C0 7.74 0.0480002 7.156 0.144 6.54C0.24 5.924 0.364 5.308 0.516 4.692C0.676 4.068 0.852 3.476 1.044 2.916C1.236 2.356 1.428 1.856 1.62 1.416C1.82 0.976 2.004 0.632 2.172 0.384C2.34 0.128 2.48 0 2.592 0C2.744 0 2.872 0.0599999 2.976 0.18C3.088 0.3 3.144 0.468 3.144 0.684C3.144 0.772 3.092 0.98 2.988 1.308C2.884 1.628 2.752 2.032 2.592 2.52C2.432 3.008 2.26 3.536 2.076 4.104C1.9 4.672 1.732 5.244 1.572 5.82C1.412 6.396 1.28 6.94 1.176 7.452C1.072 7.964 1.02 8.4 1.02 8.76C1.02 8.864 1.048 8.964 1.104 9.06C1.16 9.148 1.252 9.192 1.38 9.192C1.556 9.192 1.808 9.152 2.136 9.072C2.472 8.992 2.836 8.896 3.228 8.784C3.62 8.664 3.996 8.548 4.356 8.436C4.716 8.324 5.02 8.228 5.268 8.148C5.516 8.068 5.656 8.028 5.688 8.028C5.784 8.028 5.864 8.056 5.928 8.112C5.992 8.16 6.024 8.236 6.024 8.34C6.024 8.468 5.928 8.616 5.736 8.784C5.552 8.952 5.304 9.12 4.992 9.288C4.688 9.456 4.348 9.608 3.972 9.744C3.596 9.888 3.216 10.004 2.832 10.092C2.456 10.18 2.104 10.224 1.776 10.224Z" fill=""></path>
</svg><style>@media (prefers-color-scheme: light) { :root { filter: none; } }
@media (prefers-color-scheme: dark) { :root { filter: invert(100%); } }
</style></svg>