<svg width="0" height="0" class="hidden">
  <symbol xmlns="http://www.w3.org/2000/svg" fill="none" stroke="currentColor" stroke-linecap="round" stroke-linejoin="round" stroke-width="2" viewBox="0 0 24 24" id="youtube">
    <path stroke="none" d="M0 0h24v24H0z"></path>
    <path d="M2 8a4 4 0 0 1 4-4h12a4 4 0 0 1 4 4v8a4 4 0 0 1-4 4H6a4 4 0 0 1-4-4z"></path>
    <path d="m10 9 5 3-5 3z"></path>
  </symbol>
  <symbol xmlns="http://www.w3.org/2000/svg" fill="none" stroke="currentColor" stroke-linecap="round" stroke-linejoin="round" stroke-width="2" viewBox="0 0 24 24" id="x">
    <path stroke="none" d="M0 0h24v24H0z"></path>
    <path d="m4 4 11.733 16H20L8.267 4zM4 20l6.768-6.768m2.46-2.46L20 4"></path>
  </symbol>
  <symbol xmlns="http://www.w3.org/2000/svg" fill="none" stroke="currentColor" stroke-linecap="round" stroke-linejoin="round" stroke-width="2" viewBox="0 0 24 24" id="vimeo">
    <path stroke="none" d="M0 0h24v24H0z"></path>
    <path d="m3 8.5 1 1S5.5 8.398 6 9c.509.609 1.863 7.65 2.5 9 .556 1.184 1.978 2.89 4 1.5C14.5 18 20 14 21 8c.444-2.661-1-4-2.5-4-2 0-4.047 1.202-4.5 4 2.05-1.254 2.551 1 1.5 3s-2 3-2.5 3c-.49 0-.924-1.165-1.5-3.5-.59-2.42-.5-6.5-3-6.5S3 8.5 3 8.5"></path>
  </symbol>
  <symbol xmlns="http://www.w3.org/2000/svg" fill="none" stroke="currentColor" stroke-linecap="round" stroke-linejoin="round" stroke-width="2" viewBox="0 0 24 24" id="spotify">
    <path stroke="none" d="M0 0h24v24H0z"></path>
    <path d="M3 12a9 9 0 1 0 18 0 9 9 0 1 0-18 0"></path>
    <path d="M8 11.973c2.5-1.473 5.5-.973 7.5.527M9 15c1.5-1 4-1 5 .5M7 9c2-1 6-2 10 .5"></path>
  </symbol>
  <symbol xmlns="http://www.w3.org/2000/svg" fill="none" stroke="currentColor" stroke-linecap="round" stroke-linejoin="round" stroke-width="2" viewBox="0 0 24 24" id="soundcloud">
    <path stroke="none" d="M0 0h24v24H0z"></path>
    <path d="M17 11h1c1.38 0 3 1.274 3 3 0 1.657-1.5 3-3 3h-6V7c3 0 4.5 1.5 5 4M9 8v9M6 17v-7M3 16v-2"></path>
  </symbol>
  <symbol xmlns="http://www.w3.org/2000/svg" fill="none" stroke="currentColor" stroke-linecap="round" stroke-linejoin="round" stroke-width="2" viewBox="0 0 24 24" id="pinterest">
    <path stroke="none" d="M0 0h24v24H0z"></path>
    <path d="m8 20 4-9M10.7 14c.437 1.263 1.43 2 2.55 2 2.071 0 3.75-1.554 3.75-4a5 5 0 1 0-9.7 1.7"></path>
    <path d="M3 12a9 9 0 1 0 18 0 9 9 0 1 0-18 0"></path>
  </symbol>
  <symbol xmlns="http://www.w3.org/2000/svg" fill="none" stroke="currentColor" stroke-linecap="round" stroke-linejoin="round" stroke-width="2" viewBox="0 0 24 24" id="patreon">
    <path stroke="none" d="M0 0h24v24H0z"></path>
    <path d="M20 8.408c-.003-2.299-1.746-4.182-3.79-4.862-2.54-.844-5.888-.722-8.312.453-2.939 1.425-3.862 4.545-3.896 7.656-.028 2.559.22 9.297 3.92 9.345 2.75.036 3.159-3.603 4.43-5.356.906-1.247 2.071-1.599 3.506-1.963 2.465-.627 4.146-2.626 4.142-5.273"></path>
  </symbol>
  <symbol xmlns="http://www.w3.org/2000/svg" fill="none" stroke="currentColor" stroke-linecap="round" stroke-linejoin="round" stroke-width="2" viewBox="0 0 24 24" id="linkedin">
    <path stroke="none" d="M0 0h24v24H0z"></path>
    <path d="M8 11v5M8 8v.01M12 16v-5M16 16v-3a2 2 0 1 0-4 0"></path>
    <path d="M3 7a4 4 0 0 1 4-4h10a4 4 0 0 1 4 4v10a4 4 0 0 1-4 4H7a4 4 0 0 1-4-4z"></path>
  </symbol>
  <symbol xmlns="http://www.w3.org/2000/svg" fill="none" stroke="currentColor" stroke-linecap="round" stroke-linejoin="round" stroke-width="2" viewBox="0 0 24 24" id="instagram">
    <path stroke="none" d="M0 0h24v24H0z"></path>
    <path d="M4 8a4 4 0 0 1 4-4h8a4 4 0 0 1 4 4v8a4 4 0 0 1-4 4H8a4 4 0 0 1-4-4z"></path>
    <path d="M9 12a3 3 0 1 0 6 0 3 3 0 0 0-6 0M16.5 7.5v.01"></path>
  </symbol>
  <symbol xmlns="http://www.w3.org/2000/svg" fill="none" stroke="currentColor" stroke-linecap="round" stroke-linejoin="round" stroke-width="2" viewBox="0 0 24 24" id="github">
    <path stroke="none" d="M0 0h24v24H0z"></path>
    <path d="M9 19c-4.3 1.4-4.3-2.5-6-3m12 5v-3.5c0-1 .1-1.4-.5-2 2.8-.3 5.5-1.4 5.5-6a4.6 4.6 0 0 0-1.3-3.2 4.2 4.2 0 0 0-.1-3.2s-1.1-.3-3.5 1.3a12.3 12.3 0 0 0-6.2 0C6.5 2.8 5.4 3.1 5.4 3.1a4.2 4.2 0 0 0-.1 3.2A4.6 4.6 0 0 0 4 9.5c0 4.6 2.7 5.7 5.5 6-.6.6-.6 1.2-.5 2V21"></path>
  </symbol>
  <symbol xmlns="http://www.w3.org/2000/svg" fill="none" stroke="currentColor" stroke-linecap="round" stroke-linejoin="round" stroke-width="2" viewBox="0 0 24 24" id="facebook">
    <path stroke="none" d="M0 0h24v24H0z"></path>
    <path d="M7 10v4h3v7h4v-7h3l1-4h-4V8a1 1 0 0 1 1-1h3V3h-3a5 5 0 0 0-5 5v2z"></path>
  </symbol>
  <symbol xmlns="http://www.w3.org/2000/svg" fill="none" stroke="currentColor" stroke-linecap="round" stroke-linejoin="round" stroke-width="2" viewBox="0 0 24 24" id="dribbble">
    <path stroke="none" d="M0 0h24v24H0z"></path>
    <path d="M3 12a9 9 0 1 0 18 0 9 9 0 1 0-18 0"></path>
    <path d="M9 3.6c5 6 7 10.5 7.5 16.2"></path>
    <path d="M6.4 19c3.5-3.5 6-6.5 14.5-6.4M3.1 10.75c5 0 9.814-.38 15.314-5"></path>
  </symbol>
  <symbol xmlns="http://www.w3.org/2000/svg" fill="none" stroke="currentColor" stroke-linecap="round" stroke-linejoin="round" stroke-width="2" viewBox="0 0 24 24" id="codepen">
    <path stroke="none" d="M0 0h24v24H0z"></path>
    <path d="m3 15 9 6 9-6-9-6z"></path>
    <path d="m3 9 9 6 9-6-9-6zM3 9v6M21 9v6M12 3v6M12 15v6"></path>
  </symbol>
</svg>
