<svg xmlns="http://www.w3.org/2000/svg" width="836" height="400" fill="none"><path fill="#FCC309" d="M418.221 24.902h74.463q18.554 26.367 36.132 60.791h-2.685q12.207 11.72 22.461 31.006v2.442l-2.442 3.906q4.884.488 4.883 3.662l-1.221 1.221q11.23 1.22 11.231 12.451l-2.441 2.441H544.93v2.442h-8.789v2.441h-7.325l-14.892 3.906v-1.22l-10.01 2.441-2.441-2.441h-3.662q0 3.662-2.686 3.662h-1.221l-9.765-17.334v-1.221h2.441q0 3.662 7.324 3.662l5.127-2.441 2.442 2.441 6.103-1.221v-2.441q-6.592 0-11.23-6.348l-6.104-1.22v-2.442h-3.662v2.442h-5.127q-3.662 0-3.662-7.325-5.372 0-18.555-26.123-37.353-59.57-41.015-69.58m325.927 349.854-1.22-1.221 1.22-33.447v-48.584q6.104-7.324 13.672-7.324l-2.441-3.662v-6.348l-10.01-2.441v-11.231l2.442-2.441-2.442-3.662v-34.913l1.221-37.109q0-8.789 34.912-63.232l1.221 1.22 2.441-2.441h-2.441l37.109-65.918h2.686v212.402q0 2.442-5.127 2.442v1.22q5.127 0 5.127 2.442v88.135q0 2.44-6.348 2.441v2.441h6.348v8.789l-2.686 2.442h-40.771l-8.79-1.221-4.882 1.221h-11.231l-1.22-1.221-1.221 1.221zm51.026-8.545v-2.686l-2.442-2.441v5.127zM467.781 41.016v1.22l2.686 2.442v-1.221zM779.061 356.2h-3.907v1.221l1.221 1.221zM417 49.072h2.441l42.237 72.022q-2.442 0-2.442 3.662-7.568 0-7.568 8.545l-10.986-1.221v1.221q0 2.93-13.672 6.347l-2.442 2.442h-1.464l-4.883-6.104H417zm384.277 297.119h2.442l-4.883-3.662h-2.441v1.221zm-18.554-4.882v-2.442h-6.348v2.442zm-12.452-6.348-3.662-3.662-1.22 3.662v1.221zm35.889-20.996 7.569-3.662v-1.221h-3.663q-2.44 0-2.441 3.662h-2.686v1.221zm-20.996-10.01v-4.883l-2.441 2.442zM517.586 100.586l-1.221 1.221v3.906l2.442 2.441 2.441-2.441v-1.465zm227.783 186.035-1.221-1.221v-6.103l2.442-2.686h3.906l2.442 2.686v2.441q-2.442 4.394-7.569 6.104zM516.365 115.479v10.009q-5.127.49-5.127 3.662v1.221h7.569q0 7.569 4.882 7.568v-3.906l6.348 1.465h2.442l7.324-5.127-1.221-1.221v-1.22q0-3.174 5.127-3.662v-1.221h-13.672q-11.23-3.419-11.23-7.568zm293.701 166.259 6.104-1.22v-1.221h-1.221l-6.103 1.221v1.22zM534.92 125.488v4.883l-2.441 2.441h-1.221l-2.442-2.441zm-68.359 9.278h2.685l3.662 4.882-3.662 2.442h-2.685l-3.663-3.662zm-23.438 2.441q5.616 2.441 6.104 4.883l-2.442 6.348q2.442 0 2.442-3.907h7.568l3.662-2.441h1.221l2.441 2.441-2.441 3.907v1.22h2.441q6.348-2.685 6.348-5.127h3.662q7.324 5.127 7.324 12.451v1.221q-13.672 1.221-16.113 3.662h-13.672q0 2.686-6.104 2.686l-3.662 3.662-6.347-1.221h-3.662l-8.789 4.883h-3.663L417 169.434v-11.231l1.221-1.221-1.221-1.22v-6.104h1.221l2.441 2.442-1.221 1.22v1.221l8.789 1.221q0-2.442 8.545-3.662l-1.22-6.348h7.568v-1.221l-2.441-6.103h1.22zm170.166 213.867q-21.24-34.18-69.58-116.455-30.273-47.363-32.471-54.443h2.686v-1.221h-2.686l-1.22 1.221q-8.545-13.428-8.545-17.578h9.765v2.685h6.348l6.103 1.221 1.221-5.127 6.348 1.221h7.324l7.568-4.883 3.662 2.441h1.221q0-6.103 11.231-8.545l3.662 1.221v-2.441h1.22q8.79 8.3 8.79 14.892-3.174 0-3.663 4.883l3.663 2.441h1.22l-1.22-1.22v-3.662h3.662l33.691 56.64zm161.865-104.248-2.441-2.441h-1.221v2.441zm-16.113-6.103v-2.442l-6.103 1.221v1.221l1.22 1.22zM475.35 169.434h4.882l1.221-1.221h1.465q1.22 11.23 7.324 11.23l1.221-1.22 2.441 7.324v8.789h-4.883v2.441h4.883l.489 177.491H428.23l-5.126-1.221-4.883 1.221-1.221-1.221V184.326q2.93-7.568 10.01-7.568 5.859 0 8.545-2.442h2.441q11.23 5.127 11.231 7.569l3.662-1.221q5.127 1.22 5.127 8.545h1.22l2.442-2.441v-2.442q-4.883-4.638-4.883-7.568h-6.348l-6.103-1.221v-2.441l3.662-3.662h16.113v2.441h5.127v-2.441l-1.465-1.221v-1.221l7.569-3.662zm10.009-2.442h2.442q4.883 1.953 4.883 8.545h-1.221q-6.104-2.441-6.104-8.545m55.909 5.615v2.442h3.662v-2.442zm-68.36 2.93-1.22 6.348v3.662h1.22q3.663-1.22 3.662-7.324zm79.346 5.859v1.221l5.127 1.221h1.221v-1.221l-2.442-2.441zm3.906 3.663v3.662l2.442-2.442v-1.22zm19.776 7.324h3.662l3.662-6.104h-1.221q-3.174 0-6.103 6.104m-6.348 0v1.465h5.127v-1.465zm-140.137 1.953q4.883 5.371 4.883 9.766h1.221q4.638-4.884 7.568-4.883v-2.442q-3.662 0-3.662-2.441zm34.668 2.441q0 5.615-12.451 6.104v6.348h1.221q4.882-5.127 10.009-5.127 0-4.883 3.663-4.883v-2.442zm21.24 7.325v1.22l2.442 2.686h1.22l-1.22-3.906zm-18.798 2.685v2.442h7.568v-2.442zm126.709.733-1.221 3.662v1.22h1.221l2.441-2.441v-2.441zm-150.147 1.709-1.221 1.22v1.221h4.883v-1.221zm13.672 9.765h4.883l2.441-2.441v-1.221q-7.324 1.221-7.324 3.662m134.033 8.301h3.662v-2.441h-1.22zm-161.377 6.592v2.685l2.442 2.442h1.22l-1.22-1.221v-1.221l1.22-1.465v-1.22zm376.709-76.416v-2.442h-1.221l-2.441 2.442zm-225.342 97.168v2.441h1.221l2.441-2.441zm132.569-125-2.442 2.441h-1.22l-2.442-2.441v-4.883zm58.349-78.858v1.221l2.686-2.442v-1.22zM639.656 307.13l2.442 2.441h1.22v-2.441zm12.207-65.674h-1.22v2.441h3.662zm11.719-27.832v2.441l2.441 2.442h1.221v-1.221l-1.221-3.662zm3.906-21.973v1.465h5.127v-1.465zm-7.324-6.103h-1.221l3.662 6.103h3.663q-2.93-6.103-6.104-6.103m23.438-1.221v1.221l2.441 2.441v-3.662zm2.441-4.883-2.441 2.442v1.22h1.22l5.127-1.22v-1.221zm11.23-7.568v2.441h3.663v-2.441zm17.09-46.631q4.639-3.418-2.197-2.93h-13.672v1.221q5.127.488 5.127 3.662v1.221l-1.221 1.221 7.325 5.127h2.441l6.348-1.465v3.906q4.882 0 4.882-7.568h7.569v-1.221q-4.395-.245-9.522-.732l-4.638-2.442zm18.555-23.193v1.465l2.441 2.441 2.442-2.441V99.61l-1.221-1.22zm-35.645 41.015v-.976h-13.671l-2.442-2.442q0-11.23 11.231-12.451l-1.221-1.22q0-3.174 4.883-3.663l-2.442-3.906v-2.441q10.254-19.288 22.461-31.006h-2.685q17.577-34.424 36.133-60.791h74.462q-3.662 10.01-41.015 69.58-13.183 26.123-18.555 26.123 0 7.324-3.662 7.324l-5.127 6.104v-2.442h-3.662v2.442l-6.104 1.22q-4.639.245-11.23.245v2.441l6.103 1.221 2.442-2.442 5.127 2.442q7.324 0 7.324-3.662h2.441v1.22l-9.765 17.334q-.733 4.883-16.113 26.123l-1.221-1.22h-2.686v1.22h2.686q-2.198 7.08-32.471 54.444-48.34 82.275-69.58 116.455v-126.71l33.691-56.641h3.663v3.662l-1.221 1.221h1.221l3.662-2.441q-.49-4.884-3.662-4.883 0-6.593 13.916-21.729h1.22v2.442l3.662-1.221q8.545-1.953 12.207-.977Zm47.852 9.278q-.732-.976-.732-2.686h-3.663l-1.709 1.709zm-10.986-1.221-5.86-1.465v1.221l-14.892-3.906h-7.325v-2.442h-.732l1.465 6.104h7.324l6.348-1.221 1.221 5.127 6.103-1.221h6.348zm-29.785-6.592h-4.639q.488.734.488 1.953h1.221z"/><path fill="#FCC309" d="M418.221 24.902v-8h-11.446l3.933 10.749zm74.463 0 6.542-4.604-2.39-3.396h-4.152zm36.132 60.791v8h13.068l-5.943-11.638zm-2.685 0v-8h-19.885l14.345 13.772zm22.461 31.006h8v-1.994l-.936-1.761zm0 2.442 6.784 4.24 1.216-1.946v-2.294zm-2.442 3.906-6.784-4.24-6.824 10.919 12.812 1.281zm4.883 3.662 5.657 5.657 2.343-2.343v-3.314zm-1.221 1.221-5.656-5.657-11.806 11.806 16.598 1.804zm11.231 12.451 5.657 5.657 2.343-2.343v-3.314zm-2.441 2.441v8h3.313l2.343-2.343zm-13.672 0v-8h-8v8zm0 2.442v8h8v-8zm-8.789 0v-8h-8v8zm0 2.441v8h8v-8zm-7.325 0v-8h-1.031l-.998.262zm-14.892 3.906h-8v10.369l10.03-2.63zm0-1.22h8v-10.186l-9.896 2.413zm-10.01 2.441-5.657 5.657 3.182 3.181 4.371-1.066zm-2.441-2.441 5.657-5.657-2.344-2.343h-3.313zm-3.662 0v-8h-8v8zm-3.907 3.662-6.97 3.926 2.295 4.074h4.675zm-9.765-17.334h-8v2.098l1.03 1.828zm0-1.221v-8h-8v8zm2.441 0h8v-8h-8zm7.324 3.662v8h1.808l1.632-.777zm5.127-2.441 5.657-5.657-3.995-3.995-5.101 2.429zm2.442 2.441-5.657 5.657 3.027 3.027 4.199-.839zm6.103-1.221 1.569 7.845 6.431-1.286v-6.559zm0-2.441h8v-8h-8zm-11.23-6.348 6.459-4.72-1.837-2.514-3.053-.61zm-6.104-1.22h-8v6.558l6.431 1.286zm0-2.442h8v-8h-8zm-3.662 0v-8h-8v8zm0 2.442v8h8v-8zm-8.789-7.325h8v-8h-8zm-18.555-26.123 7.142-3.604-.167-.331-.197-.315zm284.912 280.274-5.656 5.657 2.343 2.343h3.313zm-1.22-1.221-7.995-.292-.127 3.484 2.465 2.465zm1.22-33.447 7.995.292.005-.146v-.146zm0-48.584-6.145-5.122-1.855 2.226v2.896zm13.672-7.324v8h14.948l-8.291-12.438zm-2.441-3.662h-8v2.422l1.344 2.015zm0-6.348h8v-6.283l-6.104-1.489zm-10.01-2.441h-8v6.283l6.104 1.489zm0-11.231-5.657-5.657-2.343 2.343v3.314zm2.442-2.441 5.656 5.656 4.638-4.637-3.638-5.457zm-2.442-3.662h-8v2.422l1.344 2.015zm0-34.913-7.996-.263-.004.132v.131zm1.221-37.109 7.996.263.004-.131v-.132zm34.912-63.232 5.657-5.657-7.027-7.027-5.364 8.365zm1.221 1.22-5.657 5.657 5.657 5.657 5.657-5.657zm2.441-2.441 5.657 5.657 13.657-13.657h-19.314zm-2.441 0-6.972-3.925-6.713 11.925h13.685zm37.109-65.918v-8h-4.677l-2.294 4.075zm2.686 0h8v-8h-8zm-5.127 214.844v-8h-8v8zm0 1.22h-8v8h8zm-1.221 93.018v-8h-8v8zm0 2.441h-8v8h8zm6.348 0h8v-8h-8zm0 8.789 5.381 5.92 2.619-2.381v-3.539zm-2.686 2.442v8h3.093l2.288-2.081zm-40.771 0-1.101 7.924.548.076h.553zm-8.79-1.221 1.101-7.924-1.536-.213-1.505.376zm-4.882 1.221v8h.985l.955-.239zm-11.231 0-5.657 5.657 2.343 2.343h3.314zm-1.22-1.221 5.656-5.657-5.656-5.657-5.657 5.657zm-1.221 1.221v8h3.314l2.343-2.343zm43.457-8.545v8h8v-8zm0-2.686h8v-3.313l-2.343-2.343zm-2.442-2.441 5.657-5.657-13.657-13.657v19.314zm0 5.127h-8v8h8zM467.781 41.016l5.382-5.92-13.382-12.165v18.085zm0 1.22h-8v3.54l2.619 2.38zm2.686 2.442-5.382 5.92 13.382 12.164V44.678zm0-1.221h8v-3.539l-2.619-2.38zm308.594 312.744 5.381 5.92 15.311-13.92h-20.692zm-3.907 0v-8h-8v8zm0 1.221h-8v3.314l2.343 2.343zm1.221 1.221-5.657 5.656 5.394 5.394 5.644-5.131zM417 49.073v-8h-8v8zm2.441 0 6.901-4.048-2.318-3.953h-4.583v8Zm42.237 72.021v8h13.965l-7.064-12.047zm-2.442 3.662v8h8v-8zm-7.568 8.545-.883 7.951 8.883.987v-8.938zm-10.986-1.221.883-7.951-8.883-.987v8.938zm-13.672 7.568-1.941-7.761-2.149.538-1.567 1.567zm-2.442 2.442v8h3.314l2.343-2.343zm-1.464 0-6.247 4.997 2.402 3.003h3.845zm-4.883-6.104 6.247-4.997-2.402-3.003h-3.845zm-1.221 0h-8v8h8zm384.277 210.205-3.577 7.156 1.689.844h1.888zm2.442 0v8h24l-19.2-14.4zm-4.883-3.662 4.8-6.4-2.133-1.6h-2.667zm-2.441 0v-8h-8v8zm0 1.221h-8v4.944l4.422 2.211zm-13.672-2.441v8h8v-8zm0-2.442h8v-8h-8zm-6.348 0v-8h-8v8zm0 2.442h-8v8h8zm-6.104-6.348 1.941 7.761 13.707-3.427-9.991-9.991zm-3.662-3.662 5.657-5.657-9.153-9.153-4.093 12.28zm-1.22 3.662-7.59-2.53-.41 1.232v1.298zm0 1.221h-8v10.246l9.94-2.485zm40.771-22.217v8h1.834l1.651-.799zm7.569-3.662 3.484 7.201 4.516-2.185v-5.016zm0-1.221h8v-8h-8zm-6.104 3.662v8h8v-8zm-2.686 0v-8h-8v8zm0 1.221h-8v8h8zm-19.775-10.01-5.657 5.657 13.657 13.657v-19.314zm0-4.883h8v-19.313l-13.657 13.656zm-2.441 2.442-5.657-5.657-5.657 5.657 5.657 5.657zM517.586 100.586l5.657-5.657-5.657-5.657-5.657 5.657zm-1.221 1.221-5.657-5.657-2.343 2.343v3.314zm0 3.906h-8v3.314l2.343 2.343zm2.442 2.441-5.657 5.657 5.657 5.657 5.656-5.657zm2.441-2.441 5.657 5.657 2.343-2.343v-3.314zm0-1.465h8v-3.314l-2.343-2.343zm224.121 182.373h8v-3.314l-2.343-2.343zm-1.221-1.221h-8v3.314l2.344 2.343zm0-6.103-5.919-5.382-2.081 2.289v3.093zm2.442-2.686v-8h-3.539l-2.381 2.619zm3.906 0 5.92-5.381-2.381-2.619h-3.539zm2.442 2.686h8v-3.093l-2.081-2.289zm0 2.441 6.993 3.885 1.007-1.812v-2.073zm-7.569 6.104h-8v11.099l10.53-3.51zM516.365 115.479v-8h-8v8zm0 10.009.759 7.964 7.241-.689v-7.275zm-5.127 4.883h-8v8h8zm7.569 0h8v-8h-8zm4.882 7.568v8h8v-8zm0-3.906 1.799-7.795-9.799-2.261v10.056zm6.348 1.465-1.799 7.795.888.205h.911zm2.442 0v8H535l2.066-1.446zm7.324-5.127 4.587 6.554 7.812-5.468-6.742-6.743zm-1.221-1.221h-8v3.314l2.343 2.343zm5.127-4.882.758 7.964 7.242-.69v-7.274zm0-1.221h8v-8h-8zm-13.672 0-2.329 7.653 1.139.347h1.19zm-11.23-7.568h8v-8h-8zm291.259 166.259v8h.793l.776-.155zm6.104-1.22 1.569 7.844 6.431-1.286v-6.558zm0-1.221h8v-8h-8zm-1.221 0v-8h-.792l-.777.155zm-6.103 1.221-1.569-7.845-6.431 1.286v6.559zm0 1.22h-8v8h8zM534.92 125.488h8v-16.645l-12.998 10.398zm0 4.883 5.657 5.657 2.343-2.343v-3.314zm-2.441 2.441v8h3.313l2.343-2.343zm-1.221 0-5.657 5.657 2.343 2.343h3.314zm-2.442-2.441-4.997-6.247-6.98 5.584 6.321 6.32zm-62.255 4.395v-8h-3.314l-2.343 2.343zm2.685 0 6.4-4.8-2.4-3.2h-4zm3.662 4.882 4.438 6.657 7.036-4.691-5.074-6.766zm-3.662 2.442v8h2.422l2.016-1.344zm-2.685 0-5.657 5.657 2.343 2.343h3.314zm-3.663-3.662-5.656-5.657-5.657 5.657 5.657 5.657zm-19.775-1.221 3.19-7.337-4.995-2.171-3.852 3.851zm6.104 4.883 7.466 2.872.833-2.166-.455-2.275zm-2.442 6.348-7.467-2.872-4.181 10.872h11.648zm2.442-3.907v-8h-8v8zm7.568 0v8h2.422l2.016-1.343zm3.662-2.441v-8h-2.422l-2.016 1.343zm1.221 0 5.657-5.657-2.344-2.343h-3.313zm2.441 2.441 6.784 4.24 3.373-5.397-4.5-4.5zm-2.441 3.907-6.784-4.24-1.216 1.945v2.295zm0 1.22h-8v8h8zm2.441 0v8h1.623l1.494-.632zm6.348-5.127v-8h-8v8zm3.662 0 4.588-6.554-2.066-1.446h-2.522zm7.324 13.672.712 7.968 7.288-.65v-7.318zm-16.113 3.662v8h3.314l2.343-2.343zm-13.672 0v-8h-8v8zm-6.104 2.686v-8h-3.313l-2.343 2.343zm-3.662 3.662-1.51 7.856 4.167.801 3-3zm-6.347-1.221 1.51-7.856-.748-.144h-.762zm-3.662 0v-8h-2.073l-1.813 1.007zm-8.789 4.883v8h2.073l1.812-1.007zm-3.663 0-5.656 5.657 2.343 2.343h3.313zM417 169.434h-8v3.313l2.343 2.343zm0-11.231-5.657-5.657-2.343 2.343v3.314zm1.221-1.221 5.657 5.657 5.656-5.657-5.656-5.656zm-1.221-1.22h-8v3.313l2.343 2.344zm0-6.104v-8h-8v8zm1.221 0 5.657-5.657-2.344-2.343h-3.313zm2.441 2.442 5.657 5.656 5.657-5.656-5.657-5.657zm-1.221 1.22-5.656-5.657-2.344 2.344v3.313zm0 1.221h-8v6.966l6.9.958zm8.789 1.221-1.1 7.924 9.1 1.264v-9.188zm8.545-3.662 1.132 7.919 8.31-1.187-1.586-8.243zm-1.22-6.348v-8h-9.685l1.829 9.511zm7.568 0v8h8v-8zm0-1.221h8v-1.54l-.572-1.431zm-2.441-6.103v-8h-11.817l4.389 10.971zm1.22 0v8h3.314l2.343-2.343zm171.387 212.646-6.795 4.223 14.795 23.808v-28.031zm-69.58-116.455 6.898-4.052-.076-.13-.081-.126zm-32.471-54.443v-8h-10.859l3.219 10.371zm2.686 0v8h8v-8zm0-1.221h8v-8h-8zm-2.686 0v-8h-3.313l-2.344 2.343zm-1.22 1.221-6.75 4.295 5.355 8.414 7.051-7.052zm-8.545-17.578v-8h-8v8zm9.765 0h8v-8h-8zm0 2.685h-8v8h8zm6.348 0 1.569-7.844-.777-.156h-.792zm6.103 1.221-1.568 7.845 7.564 1.512 1.787-7.504zm1.221-5.127 1.511-7.856-7.52-1.446-1.773 7.449zm6.348 1.221-1.511 7.856.749.144h.762zm7.324 0v8h2.357l1.98-1.278zm7.568-4.883 4.438-6.657-4.366-2.91-4.409 2.844zm3.662 2.441-4.437 6.657 2.015 1.343h2.422zm1.221 0v8h8v-8zm11.231-8.545 2.529-7.589-2.083-.695-2.146.467zm3.662 1.221-2.53 7.589 10.53 3.51v-11.099zm0-2.441v-8h-8v8zm1.22 0 5.493-5.816-2.312-2.184h-3.181zm8.79 14.892v8h8v-8zm-3.663 4.883-7.96-.796-.478 4.785 4.001 2.667zm3.663 2.441-4.438 6.657 2.015 1.343h2.423zm1.22 0v8h19.314l-13.657-13.656zm-1.22-1.22h-8v3.313l2.343 2.344zm0-3.662v-8h-8v8zm3.662 0 6.875-4.09-2.326-3.91h-4.549zm33.691 56.64h8v-2.199l-1.124-1.891zm161.865 22.461v8h19.314l-13.657-13.657zm-2.441-2.441 5.657-5.657-2.343-2.343h-3.314zm-1.221 0v-8h-8v8zm0 2.441h-8v8h8zm-12.451-6.103 1.94 7.761 6.06-1.515v-6.246zm0-2.442h8v-9.758l-9.569 1.914zm-6.103 1.221-1.569-7.845-6.431 1.287v6.558zm0 1.221h-8v3.313l2.343 2.344zm1.22 1.22-5.657 5.657 3.203 3.203 4.394-1.099zM475.35 169.434h-8v8h8zm4.882 0v8h3.314l2.343-2.344zm1.221-1.221v-8h-3.314l-2.343 2.343zm1.465 0 7.953-.865-.775-7.135h-7.178zm7.324 11.23v8h3.314l2.343-2.343zm1.221-1.22 7.589-2.53-4.093-12.28-9.153 9.153zm2.441 7.324h8v-1.298l-.41-1.232zm0 8.789v8h8v-8zm-4.883 0v-8h-8v8zm0 2.441h-8v8h8zm4.883 0 8-.022-.022-7.978h-7.978zm.489 177.491v8h8.022l-.022-8.022zm-66.163 0-1.852 7.782.913.218h.939zm-5.126-1.221 1.852-7.783-1.899-.452-1.894.474zm-4.883 1.221-5.657 5.656 3.203 3.203 4.394-1.098zM417 373.047h-8v3.314l2.343 2.343zm0-188.721-7.461-2.888-.539 1.394v1.494zm18.555-10.01v-8h-3.093l-2.289 2.081zm2.441 0 3.322-7.277-1.582-.723h-1.74zm11.231 7.569h-8v11.099l10.529-3.51zm3.662-1.221 1.853-7.782-2.219-.529-2.164.722zm5.127 8.545h-8v8h8zm1.22 0v8h3.314l2.343-2.343zm2.442-2.441 5.657 5.656 2.343-2.343v-3.313zm0-2.442h8v-3.434l-2.49-2.366zm-4.883-7.568h8v-8h-8zm-6.348 0-1.569 7.844.777.156h.792zm-6.103-1.221h-8v6.559l6.431 1.286zm0-2.441-5.657-5.657-2.343 2.343v3.314zm3.662-3.662v-8h-3.314l-2.343 2.343zm16.113 0h8v-8h-8zm0 2.441h-8v8h8zm5.127 0v8h8v-8zm0-2.441h8v-3.747l-2.878-2.399zm-1.465-1.221h-8v3.747l2.879 2.399zm0-1.221-3.484-7.201-4.516 2.185v5.016zm7.569-3.662h8v-12.758l-11.485 5.557zm10.009 3.662v-8h-8v8zm2.442 0 2.971-7.428-1.431-.572h-1.54zm4.883 8.545v8h8v-8zm-1.221 0-2.971 7.428 1.43.572h1.541zm49.805-2.93v-8h-8v8zm0 2.442h-8v8h8zm3.662 0v8h8v-8zm0-2.442h8v-8h-8zm-72.022 2.93 4.731-6.451-10.198-7.479-2.389 12.419zm-1.22 6.348-7.857-1.511-.143.749v.762zm0 3.662h-8v8h8zm1.22 0v8h1.298l1.232-.411zm3.662-7.324h8v-4.054l-3.269-2.398zm75.684 3.173-2.386-7.635-5.614 1.754v5.881zm0 1.221h-8v6.319l6.147 1.464zm5.127 1.221-1.853 7.782.914.218h.939zm1.221 0v8h8v-8zm0-1.221h8v-3.314l-2.344-2.343zm-2.442-2.441 5.657-5.657-3.423-3.423-4.62 1.444zm0 4.883v-8h-8v8zm0 3.662h-8v19.313l13.657-13.656zm2.442-2.442 5.656 5.657 2.344-2.343v-3.314zm0-1.22h8v-8h-8zm17.334 7.324-7.213-3.462-5.501 11.462h12.714zm3.662 0v8h4.529l2.331-3.884zm3.662-6.104 6.86 4.116 7.269-12.116H583.26zm-13.672 6.104v-8h-8v8zm0 1.465h-8v8h8zm5.127 0v8h8v-8zm0-1.465h8v-8h-8zm-145.264 1.953v-8h-18.084l12.165 13.381zm4.883 9.766h-8v8h8zm1.221 0v8h3.434l2.366-2.49zm7.568-4.883v8h8v-8zm0-2.442h8v-8h-8zm-3.662-2.441h8v-8h-8zm24.658 2.441v-8h-8v8zm-12.451 6.104-.314-7.994-7.686.301v7.693zm0 6.348h-8v8h8zm1.221 0v8h3.428l2.365-2.483zm10.009-5.127v8h8v-8zm3.663-4.883v8h8v-8zm0-2.442h8v-8h-8zm18.798 7.325v-8h-8v8zm0 1.22h-8v3.093l2.081 2.289zm2.442 2.686-5.92 5.381 2.381 2.619h3.539zm1.22 0v8h10.882l-3.246-10.386zm-1.22-3.906 7.636-2.387-1.755-5.613h-5.881zm-21.24 2.685v-8h-8v8zm0 2.442h-8v8h8zm7.568 0v8h8v-8zm0-2.442h8v-8h-8zm119.141.733v-8h-5.767l-1.823 5.47zm-1.221 3.662-7.59-2.53-.41 1.231v1.299zm0 1.22h-8v8h8zm1.221 0v8h3.313l2.343-2.343zm2.441-2.441 5.657 5.657 2.343-2.343v-3.314zm0-2.441h8v-8h-8zm-152.588 1.709 2.53-7.59-4.691-1.563-3.496 3.496zm-1.221 1.22-5.657-5.657-2.343 2.344v3.313zm0 1.221h-8v8h8zm4.883 0v8h8v-8zm0-1.221h8v-5.766l-5.47-1.823zm10.01 8.545h-8v8h8zm4.883 0v8h3.313l2.344-2.343zm2.441-2.441 5.657 5.657 2.343-2.344v-3.313zm0-1.221h8v-9.444l-9.315 1.553zm126.709 11.963-5.657-5.657-13.657 13.657h19.314zm3.662 0v8h8v-8zm0-2.441h8v-8h-8zm-1.22 0v-8h-3.314l-2.343 2.343zm-163.819 9.033v-8h-8v8zm0 2.685h-8v3.314l2.343 2.343zm2.442 2.442-5.657 5.657 2.343 2.343h3.314zm1.22 0v8h19.314l-13.657-13.657zm-1.22-1.221h-8v3.314l2.343 2.343zm0-1.221-6.146-5.121-1.854 2.225v2.896zm1.22-1.465 6.146 5.122 1.854-2.225v-2.897zm0-1.22h8v-8h-8zm373.047-76.416v8h8v-8zm0-2.442h8v-8h-8zm-1.221 0v-8h-3.313l-2.343 2.343zm-2.441 2.442-5.657-5.657-13.657 13.657h19.314zm-221.68 97.168v-8h-8v8zm0 2.441h-8v8h8zm1.221 0v8h3.314l2.343-2.343zm2.441-2.441 5.657 5.657 13.657-13.657H584.48zm128.907-125 5.657 5.657 6.32-6.321-6.98-5.583zm-2.442 2.441v8h3.314l2.343-2.343zm-1.22 0-5.657 5.657 2.343 2.343h3.314zm-2.442-2.441h-8v3.313l2.343 2.344zm0-4.883 4.998-6.247-12.998-10.398v16.645zm64.453-73.975-5.381-5.92-2.619 2.381v3.54zm0 1.221h-8v18.084l13.382-12.164zm2.686-2.442 5.381 5.92 2.619-2.38v-3.54zm0-1.22h8V30.255L769.04 42.42zM639.656 307.129v-8h-19.313l13.656 13.657zm2.442 2.441-5.657 5.657 2.343 2.343h3.314zm1.22 0v8h8v-8zm0-2.441h8v-8h-8zm8.545-65.674 5.657-5.657-2.343-2.343h-3.314zm-1.22 0v-8h-8v8zm0 2.441h-8v8h8zm3.662 0v8h19.313l-13.656-13.656zm9.277-30.273v-8h-8v8zm0 2.441h-8v3.314l2.343 2.343zm2.441 2.442-5.656 5.657 2.343 2.343h3.313zm1.221 0v8h8v-8zm0-1.221h8v-1.298l-.41-1.232zm-1.221-3.662 7.59-2.53-1.823-5.47h-5.767zm1.465-21.973v-8h-8v8zm0 1.465h-8v8h8zm5.127 0v8h8v-8zm0-1.465h8v-8h-8zm-13.672-6.103v-8h-14.129l7.269 12.116zm3.662 6.103-6.859 4.116 2.33 3.884h4.529zm3.663 0v8h12.713l-5.501-11.461zm17.334-7.324v-8h-8v8zm0 1.221h-8v3.314l2.343 2.343zm2.441 2.441-5.657 5.657 13.657 13.657v-19.314zm0-3.662h8v-8h-8zm0-4.883 2.386-7.635-4.62-1.444-3.423 3.423zm-2.441 2.442-5.657-5.657-2.343 2.343v3.314zm0 1.22h-8v8h8zm1.22 0v8h.94l.913-.217zm5.127-1.22 1.853 7.782 6.147-1.463v-6.319zm0-1.221h8v-5.881l-5.614-1.755zm7.324-8.789v-8h-8v8zm0 2.441h-8v8h8zm3.663 0v8h8v-8zm0-2.441h8v-8h-8zm13.427-46.631-4.745-6.44-19.598 14.44h24.343zm-2.197-2.93v8h.285l.285-.02zm-13.672 0v-8h-8v8zm0 1.221h-8v7.274l7.242.69zm5.127 4.883 5.657 5.657 2.343-2.343v-3.314zm-1.221 1.221-5.656-5.657-6.743 6.742 7.812 5.469zm7.325 5.127-4.588 6.553 2.066 1.447h2.522zm2.441 0v8h.911l.888-.205zm6.348-1.465h8v-10.057l-9.799 2.262zm0 3.906h-8v8h8zm4.882-7.568v-8h-8v8zm7.569 0v8h8v-8zm0-1.221h8v-7.568l-7.556-.42zm-9.522-.732-3.726 7.079 1.397.735 1.571.15zm-4.638-2.442 3.726-7.079-1.75-.921h-1.976zm16.113-23.193-5.657-5.657-2.343 2.343v3.314zm0 1.465h-8v3.313l2.343 2.343zm2.441 2.441-5.656 5.657 5.656 5.657 5.657-5.657zm2.442-2.441 5.657 5.656 2.343-2.343v-3.313zm0-3.907h8v-3.313l-2.343-2.344zm-1.221-1.22 5.657-5.657-5.657-5.657-5.657 5.657zm-39.307 44.677-2.061 7.73 10.061 2.683v-10.413zm0-.976h8v-8h-8zm-13.671 0-5.657 5.657 2.343 2.343h3.314zm-2.442-2.442h-8v3.314l2.343 2.343zm11.231-12.451.864 7.953 16.598-1.804-11.806-11.806zm-1.221-1.22h-8v3.313l2.343 2.343zm4.883-3.663.796 7.961 12.812-1.281-6.824-10.92zm-2.442-3.906h-8v2.295l1.216 1.945zm0-2.441-7.063-3.756-.937 1.761v1.995zm22.461-31.006 5.541 5.771 14.344-13.771h-19.885zm-2.685 0-7.125-3.638-5.943 11.638h13.068zM749.52 24.17v-8h-4.153l-2.39 3.396zm74.462 0 7.513 2.749 3.933-10.75h-11.446v8Zm-41.015 69.58-6.778-4.25-.197.314-.167.332zm-18.555 26.123v-8h-8v8zm-3.662 7.324v-8h-3.728l-2.398 2.855zm-5.127 6.104h-8v21.962l14.126-16.817zm0-2.442h8v-8h-8zm-3.662 0v-8h-8v8zm0 2.442 1.569 7.844 6.431-1.286v-6.558zm-6.104 1.22.421 7.989.579-.03.569-.114zm-11.23.245v-8h-8v8zm0 2.441h-8v6.558l6.431 1.287zm6.103 1.221-1.568 7.844 4.198.84 3.027-3.027zm2.442-2.442 3.439-7.223-5.101-2.429-3.995 3.995zm5.127 2.442-3.44 7.223 1.632.777h1.808zm7.324-3.662v-8h-8v8zm2.441 0h8v-8h-8zm0 1.22 6.97 3.927 1.03-1.828v-2.099zm-9.765 17.334-6.97-3.926-.723 1.283-.219 1.457zm-16.113 26.123-5.657 5.657 6.634 6.634 5.502-7.599zm-1.221-1.22 5.657-5.657-2.343-2.343h-3.314zm-2.686 0v-8h-8v8zm0 1.22h-8v8h8zm2.686 0 7.64 2.372 3.219-10.372h-10.859zm-32.471 54.444-6.741-4.309-.08.127-.076.129zm-69.58 116.455h-8v28.03l14.795-23.808zm0-126.709-6.876-4.09-1.124 1.89v2.2zm33.691-56.641v-8h-4.549l-2.326 3.91zm3.663 0h8v-8h-8zm0 3.662 5.656 5.657 2.344-2.343v-3.314zm-1.221 1.221-5.657-5.657-13.657 13.657h19.314zm1.221 0v8h2.422l2.015-1.344zm3.662-2.441 4.437 6.656 4.001-2.667-.478-4.785zm-3.662-4.883h-8v8h8zm13.916-21.729v-8h-3.513l-2.377 2.586zm1.22 0h8v-8h-8zm0 2.442h-8v11.099l10.53-3.51zm3.662-1.221-1.782-7.799-.379.087-.368.123zm60.059 8.301-1.264 7.899 19.533 3.125-11.869-15.824zm-.732-2.686h8v-8h-8zm-3.663 0v-8h-3.313l-2.343 2.343zm-1.709 1.709-5.656-5.657-11.081 11.081 15.474 2.476zm-4.882-.244h8v-6.246l-6.06-1.515zm-5.86-1.465 1.941-7.761-9.941-2.485v10.246zm0 1.221-2.029 7.738 10.029 2.631v-10.369zm-14.892-3.906 2.029-7.739-.998-.261h-1.031zm-7.325 0h-8v8h8zm0-2.442h8v-8h-8zm-.732 0v-8h-10.147l2.368 9.867zm1.465 6.104-7.779 1.867 1.472 6.133h6.307zm7.324 0v8h.762l.749-.144zm6.348-1.221 7.782-1.853-1.773-7.449-7.52 1.446zm1.221 5.127-7.783 1.853 1.787 7.505 7.564-1.513zm6.103-1.221v-8h-.792l-.777.156zm6.348 0v8h8v-8zm-29.785-8.789 4.437 6.657 21.985-14.657h-26.422zm-4.639 0v-8h-14.948l8.291 12.438zm.488 1.953h-8v8h8zm1.221 0v8h2.422l2.015-1.343zM418.221 32.902h74.463v-16h-74.463zm67.92-3.396c12.116 17.217 23.971 37.148 35.551 59.826l14.249-7.277c-11.857-23.22-24.091-43.817-36.715-61.757zm42.675 48.187h-2.685v16h2.685zm-8.225 13.772c7.378 7.083 14.389 16.674 20.937 28.99l14.128-7.511c-7.125-13.4-15.087-24.48-23.985-33.022zm20.001 25.234v2.442h16v-2.442zm1.216-1.798-2.442 3.906 13.568 8.48 2.442-3.906zm3.546 16.106c.974.098.52.246-.342-.4a5 5 0 0 1-1.474-1.81 4.8 4.8 0 0 1-.505-2.088h16c0-3.458-1.5-6.712-4.421-8.902-2.488-1.867-5.384-2.492-7.666-2.72zm.022-9.955-1.22 1.221 11.313 11.314 1.221-1.221zm3.572 14.831c2.477.269 3.19.954 3.347 1.128.15.167.748.923.748 3.37h16c0-5.04-1.274-10.103-4.867-14.086-3.587-3.977-8.489-5.774-13.499-6.318zm6.438-1.159-2.441 2.441 11.313 11.314 2.442-2.441zm3.216.098H544.93v16h13.672zm-21.672 8v2.442h16v-2.442zm8-5.558h-8.789v16h8.789zm-16.789 8v2.441h16v-2.441zm8-5.559h-7.325v16h7.325zm-9.354.262-14.893 3.906 4.06 15.477 14.892-3.907zm-4.863 11.644v-1.22h-16v1.22zm-9.896-8.993-10.01 2.442 3.792 15.544 10.009-2.441zm-2.457 4.557-2.441-2.441-11.314 11.313 2.441 2.442zm-8.098-4.784h-3.662v16h3.662zm-11.662 8c0 .479-.13-.611.877-1.985a5.9 5.9 0 0 1 2.302-1.865 5.2 5.2 0 0 1 2.135-.488v16c2.916 0 6.224-1.128 8.465-4.185 1.903-2.594 2.221-5.515 2.221-7.477zm5.314-4.338h-1.221v16h1.221zm5.749 4.073-9.765-17.334-13.94 7.853 9.765 17.334zm-8.735-13.407v-1.221h-16v1.221zm-8 6.779h2.441v-16h-2.441zm-5.559-8c0 2.01.526 4.126 1.801 6.04 1.243 1.863 2.893 3.082 4.452 3.862 2.893 1.446 6.221 1.76 9.071 1.76v-16c-.909 0-1.519-.058-1.889-.12-.391-.065-.334-.104-.026.049.339.17 1.073.625 1.705 1.574.666.998.886 2.046.886 2.835zm18.764 10.885 5.127-2.441-6.879-14.446-5.127 2.441zm-3.97-4.007 2.442 2.441 11.314-11.314-2.442-2.441zm9.668 4.629 6.103-1.221-3.138-15.689-6.103 1.221zm12.534-9.066v-2.441h-16v2.441zm-8-10.441c-1.331 0-2.857-.448-4.771-3.068l-12.918 9.441c4.27 5.843 10.232 9.627 17.689 9.627zm-9.661-6.192-6.104-1.221-3.138 15.689 6.104 1.221zm.327 6.624v-2.442h-16v2.442zm-8-10.442h-3.662v16h3.662zm-11.662 8v2.442h16v-2.442zm8-5.558h-5.127v16h5.127zm-5.127 0c.79 0 1.837.22 2.836.886.948.632 1.404 1.366 1.573 1.705.154.307.114.365.049-.026-.062-.37-.12-.981-.12-1.89h-16c0 2.85.314 6.179 1.76 9.071.78 1.56 1.999 3.21 3.862 4.452 1.914 1.276 4.03 1.802 6.04 1.802zm-3.662-7.325c2.149 0 2.987 1.143 2.15.397-.581-.518-1.565-1.607-2.952-3.56-2.744-3.863-6.275-9.973-10.611-18.564l-14.284 7.209c4.454 8.824 8.41 15.776 11.851 20.62 1.705 2.401 3.488 4.578 5.348 6.237 1.605 1.431 4.559 3.661 8.498 3.661zm-11.777-22.373C453.578 70.4 443.979 54.744 437.197 43.24c-6.961-11.81-10.548-18.584-11.463-21.086l-15.026 5.497c1.526 4.17 5.996 12.33 12.706 23.714 6.89 11.689 16.578 27.487 29.045 47.367zM749.805 369.1l-1.22-1.221-11.314 11.314 1.221 1.221zm1.117 4.728 1.221-33.447-15.989-.584-1.221 33.447zm1.226-33.739v-48.584h-16v48.584zm-1.854-43.463c2.978-3.573 5.452-4.445 7.526-4.445v-16c-8.016 0-14.657 4.01-19.817 10.202zm14.183-16.883-2.442-3.662-13.312 8.875 2.441 3.662zm-1.098.776v-6.348h-16v6.348zm-6.104-14.12-10.01-2.442-3.792 15.545 10.01 2.441zm-3.906 5.331v-11.231h-16v11.231zm-2.343-5.574 2.441-2.442-11.313-11.313-2.442 2.441zm3.441-12.536-2.441-3.662-13.313 8.875 2.441 3.662zm-1.098.776v-34.913h-16v34.913zm-.004-34.65 1.221-37.109-15.992-.526-1.221 37.109zm1.225-37.372c0 .383.04-.636 1.526-4.075 1.309-3.029 3.353-7.094 6.205-12.261 5.693-10.31 14.311-24.482 25.915-42.578l-13.468-8.637c-11.671 18.2-20.509 32.715-26.454 43.482-2.966 5.372-5.285 9.943-6.886 13.648-1.424 3.296-2.838 7.108-2.838 10.421zm21.255-57.576 1.221 1.221 11.314-11.314-1.221-1.22zm12.535 1.221 2.441-2.441-11.314-11.314-2.441 2.441zm-3.216-16.098h-2.441v16h2.441zm4.53 11.924 37.109-65.917-13.942-7.85-37.11 65.918zm30.138-61.842h2.686v-16h-2.686zm-5.314-8v212.402h16V52.002zm0 212.402c0-1.075.31-2.355 1.125-3.519.766-1.095 1.663-1.639 2.153-1.873.468-.222.727-.243.584-.22a7 7 0 0 1-.989.054v16c2.089 0 4.808-.208 7.284-1.388 1.345-.64 2.883-1.693 4.076-3.398a9.8 9.8 0 0 0 1.767-5.656zm-5.127 2.442v1.22h16v-1.22zm8 9.22c.557 0 .869.035.989.054.143.023-.116.002-.584-.22-.49-.234-1.387-.778-2.153-1.873a6.2 6.2 0 0 1-1.125-3.519h16c0-1.89-.525-3.882-1.767-5.656-1.193-1.705-2.731-2.758-4.076-3.398-2.476-1.179-5.195-1.388-7.284-1.388zm-2.873-5.558v88.135h16v-88.135zm0 88.135c0-1.502.551-3.01 1.557-4.172.871-1.005 1.754-1.376 1.984-1.464.256-.099.267-.061-.129-.011-.369.048-.941.088-1.76.088v16c2.398 0 5.176-.199 7.632-1.144 1.288-.495 2.964-1.374 4.364-2.99a9.58 9.58 0 0 0 2.352-6.307zm-6.348 2.441v2.441h16v-2.441zm8 10.441h6.348v-16h-6.348zm-1.652-8v8.789h16v-8.789zm2.618 2.87-2.685 2.441 10.762 11.839 2.686-2.441zm2.696.361h-40.771v16h40.771zm-39.671.076-8.789-1.221-2.201 15.848 8.789 1.221zm-11.83-1.058-4.883 1.221 3.881 15.522 4.883-1.221zm-2.942.982h-11.231v16h11.231zm-5.574 2.343-1.221-1.221-11.313 11.314 1.22 1.221zm-12.534-1.221-1.221 1.221 11.314 11.314 1.22-1.221zm4.436-1.122h-7.569v16h7.569zm51.457-.545v-2.686h-16v2.686zm-2.343-8.342-2.442-2.442-11.313 11.314 2.441 2.441zm-16.099 3.215v5.127h16v-5.127zm8 13.127h2.442v-16h-2.442zM459.781 41.016v1.22h16v-1.22zm2.619 7.14 2.685 2.441 10.763-11.839-2.685-2.441zm16.067-3.478v-1.221h-16v1.22zm-2.619-7.14-2.685-2.442-10.763 11.84 2.685 2.44zM779.061 348.2h-3.907v16h3.907zm-11.907 8v1.221h16V356.2zm2.343 6.878 1.221 1.22 11.314-11.313-1.221-1.221zm12.259 1.483 2.686-2.441-10.763-11.839-2.685 2.441zM417 57.072h2.441v-16H417zm-4.459-3.953 42.236 72.022 13.802-8.094-42.237-72.022zm49.137 59.975c-3.145 0-6.416 1.37-8.488 4.478-1.69 2.535-1.954 5.327-1.954 7.184h16c0-.585.144.376-.733 1.691a6.04 6.04 0 0 1-2.316 2.031c-1 .5-1.911.616-2.509.616zm-2.442 3.662c-4.024 0-8.431 1.181-11.665 4.832-3.07 3.466-3.903 7.854-3.903 11.713h16c0-.86.098-1.312.146-1.473.039-.135.003.066-.265.368a2.4 2.4 0 0 1-.438.385 2 2 0 0 1-.368.196c-.147.056-.035-.021.493-.021zm-6.685 8.594-10.986-1.221-1.767 15.902 10.987 1.221zm-19.869 6.73v1.221h16v-1.221zm0 1.221c0-2.811 1.635-4.31 1.817-4.472.272-.243.218-.114-.604.267-1.582.735-4.414 1.689-8.826 2.791l3.881 15.523c4.703-1.176 8.707-2.42 11.683-3.801 1.456-.676 3.111-1.586 4.522-2.845 1.322-1.18 3.527-3.676 3.527-7.463zm-11.329.691-2.441 2.441 11.313 11.314 2.442-2.442zm3.215.098h-1.464v16h1.464zm4.782 3.002-4.882-6.103-12.494 9.995 4.883 6.103zm-11.129-9.106H417v16h1.221zm6.779 8V49.072h-16v86.914zm376.277 218.205h2.442v-16h-2.442zm7.242-14.4-4.883-3.662-9.6 12.8 4.883 3.662zm-9.683-5.262h-2.441v16h2.441zm-10.441 8v1.221h16v-1.221zm4.422 8.376 4.883 2.442 7.155-14.311-4.883-2.441zm-2.094-9.596v-2.442h-16v2.442zm-8-10.442h-6.348v16h6.348zm-14.348 8v2.442h16v-2.442zm8 10.442h6.348v-16h-6.348zm-.447-20.005-3.662-3.662-11.313 11.314 3.662 3.662zm-16.908-.535-1.221 3.662 15.179 5.06 1.221-3.662zm-1.631 6.192v1.221h16v-1.221zm9.94 8.982 4.883-1.221-3.881-15.522-4.883 1.221zm42.316-22.777 7.568-3.662-6.969-14.403-7.568 3.663zm12.084-10.863v-1.221h-16v1.221zm-8-9.221h-3.663v16h3.663zm-3.663 0c-3.144 0-6.415 1.37-8.487 4.478-1.69 2.535-1.954 5.327-1.954 7.184h16c0-.584.143.376-.733 1.691a6 6 0 0 1-2.316 2.031c-1 .5-1.912.616-2.51.616zm-2.441 3.662h-2.686v16h2.686zm-10.686 8v1.221h16v-1.221zm8 9.221h1.221v-16h-1.221zm-11.775-18.01v-4.883h-16v4.883zm-13.657-10.54-2.441 2.442 11.314 11.314 2.441-2.442zm-2.441 13.756 2.441 2.441 11.314-11.314-2.441-2.441zM511.929 94.929l-1.221 1.22 11.314 11.314 1.221-1.22zm-3.564 6.878v3.906h16v-3.906zm2.343 9.563 2.442 2.441 11.313-11.314-2.441-2.441zm13.755 2.441 2.442-2.441-11.314-11.314-2.441 2.441zm4.785-8.098v-1.465h-16v1.465zm-2.343-7.122-3.662-3.662-11.314 11.314 3.662 3.662zm224.121 182.373-1.221-1.22-11.313 11.313 1.22 1.221zm1.122 4.436v-6.103h-16v6.103zm-2.08-.722 2.441-2.685-11.839-10.763-2.441 2.685zm-3.478-.067h3.906v-16h-3.906zm-2.013-2.618 2.441 2.685 11.839-10.763-2.441-2.685zm.361-2.696v2.441h16v-2.441zm1.006-1.444c-.579 1.042-1.43 1.841-3.105 2.399l5.06 15.179c5.161-1.72 9.355-4.99 12.032-9.808zm7.425 9.989v-1.221h-16v1.221zM508.365 115.479v10.009h16v-10.009zm7.242 2.045c-2.315.221-5.225.82-7.737 2.614-2.975 2.125-4.632 5.394-4.632 9.012h16a4.95 4.95 0 0 1-.559 2.228 5 5 0 0 1-1.509 1.78c-.23.164-.422.266-.546.324a2 2 0 0 1-.143.06l-.049.018s.014-.005.044-.012l.133-.027q.177-.034.515-.069zm-12.369 11.626v1.221h16v-1.221zm8 9.221h7.569v-16h-7.569zm-.431-8c0 3.127.458 6.851 2.498 10.013 2.429 3.766 6.312 5.555 10.384 5.555v-16c.23 0 .82.05 1.536.42.744.384 1.246.92 1.525 1.351.243.378.239.552.183.29-.055-.256-.126-.773-.126-1.629zm20.882 7.568v-3.906h-16v3.906zm-9.798 3.889 6.347 1.465 3.598-15.59-6.348-1.465zm8.146 1.67h2.442v-16h-2.442zm7.029-1.446 7.324-5.127-9.175-13.108-7.324 5.127zm8.394-17.338-1.221-1.22-11.314 11.313 1.221 1.221zm1.122 4.436v-1.22h-16v1.22zm0-1.22c0 .574-.124 1.378-.559 2.228a5 5 0 0 1-1.509 1.779c-.23.164-.422.266-.546.324a2 2 0 0 1-.143.061l-.049.017a2 2 0 0 1 .177-.039 6 6 0 0 1 .514-.068l-1.516-15.928c-2.316.22-5.225.819-7.737 2.613-2.976 2.126-4.632 5.394-4.632 9.013zm5.127-3.662v-1.221h-16v1.221zm-8-9.221h-13.672v16h13.672zm-11.343.346c-3.453-1.051-5.38-1.974-6.281-2.581-.426-.287-.31-.298-.046.075.32.452.768 1.358.768 2.592h-16c0 5.391 3.679 8.81 6.336 10.601 2.843 1.915 6.531 3.393 10.565 4.62zm-13.559-7.914h-2.442v16h2.442zm292.828 182.104 6.104-1.221-3.138-15.689-6.104 1.221zm12.535-9.065v-1.221h-16v1.221zm-8-9.221h-1.221v16h1.221zm-2.79.155-6.103 1.221 3.138 15.689 6.103-1.22zm-12.534 9.066v1.22h16v-1.22zm8 9.22h1.22v-16h-1.22zM526.92 125.488v4.883h16v-4.883zm2.343-.774-2.441 2.442 11.313 11.313 2.442-2.441zm3.216.098h-1.221v16h1.221zm4.436 2.344-2.442-2.442-11.313 11.314 2.441 2.441zm-3.101 9.462 6.103-4.883-9.995-12.494-6.103 4.883zm-67.253 6.148h2.685v-16h-2.685zm-3.715-3.2 3.662 4.882 12.8-9.6-3.662-4.882zm5.625-6.574-3.663 2.441 8.876 13.313 3.662-2.441zm.775 1.098h-2.685v16h2.685zm2.971 2.343-3.662-3.662-11.313 11.314 3.662 3.662zm-3.662 7.652 3.662-3.663-11.313-11.313-3.662 3.662zm-28.622.459c.739.321 1.314.608 1.75.854.443.249.681.421.776.497.104.084-.045-.014-.274-.33-.24-.332-.616-.972-.803-1.906l15.689-3.138c-.691-3.457-2.922-5.764-4.617-7.12-1.789-1.43-3.943-2.575-6.141-3.531zm1.827-5.326-2.442 6.348 14.934 5.743 2.441-6.347zm5.025 17.22c3.373 0 6.644-1.582 8.615-4.737 1.58-2.528 1.827-5.293 1.827-7.17h-16c0 .728-.161-.084.605-1.31a6 6 0 0 1 2.257-2.086 5.8 5.8 0 0 1 2.696-.697zm2.442-3.907h7.568v-16h-7.568zm12.006-1.343 3.662-2.442-8.876-13.313-3.662 2.442zm-.776-1.098h1.221v-16h-1.221zm-4.436-2.343 2.441 2.441 11.314-11.314-2.441-2.441zm1.314-7.456-2.441 3.907 13.568 8.479 2.441-3.906zm-3.657 8.147v1.22h16v-1.22zm8 9.22h2.441v-16h-2.441zm5.558-.632c2.4-1.015 4.77-2.233 6.671-3.769 1.705-1.377 4.56-4.262 4.56-8.726h-16c0-1.406.474-2.459.847-3.048.341-.539.627-.743.539-.673-.067.055-.31.234-.819.515-.498.274-1.165.599-2.032.965zm3.231-4.495h3.662v-16h-3.662zm-.926-1.446c3.279 2.295 3.912 4.216 3.912 5.897h16c0-8.083-4.249-14.464-10.736-19.005zm3.912 5.897v1.221h16v-1.221zm7.289-6.747c-4.715.421-8.738.968-11.926 1.693-1.593.362-3.155.807-4.569 1.383-1.309.533-3.071 1.404-4.564 2.897l11.314 11.314c-.68.679-1.159.788-.719.609.335-.137.992-.353 2.084-.601 2.183-.496 5.402-.966 9.803-1.359zm-15.402 3.63h-13.672v16h13.672zm-21.672 8c0-1.18.374-2.511 1.242-3.656.789-1.042 1.657-1.497 2.01-1.652.348-.153.459-.134.154-.089-.28.041-.766.083-1.51.083v16c2.375 0 5.243-.224 7.8-1.349 1.37-.603 3.001-1.617 4.299-3.331a9.9 9.9 0 0 0 2.005-6.006zm-3.76-2.971-3.663 3.662 11.314 11.314 3.662-3.662zm3.505 1.463-6.348-1.221-3.021 15.712 6.348 1.221zm-7.858-1.365h-3.662v16h3.662zm-7.548 1.007-8.789 4.883 7.771 13.986 8.789-4.883zm-4.903 3.876h-3.663v16h3.663zm1.994 2.343-2.441-2.441-11.314 11.313 2.442 2.442zm-.098 3.216v-11.231h-16v11.231zm-2.343-5.574 1.221-1.221-11.314-11.313-1.221 1.22zm1.221-12.534-1.221-1.221-11.314 11.314 1.221 1.22zm1.122 4.436v-6.104h-16v6.104zm-8 1.896h1.221v-16H417zm-4.436-2.343 2.441 2.441 11.314-11.313-2.441-2.442zm2.441-8.872-1.22 1.22 11.313 11.314 1.221-1.221zm-3.564 6.877v1.221h16v-1.221zm6.9 9.145 8.789 1.221 2.201-15.848-8.789-1.221zm17.889-6.703c0 2.195-1.042 3.745-1.809 4.512-.644.644-1.13.802-.903.705.159-.069.581-.222 1.372-.41a34 34 0 0 1 3.017-.55l-2.263-15.839c-3.058.437-6.026 1.062-8.429 2.092-1.64.703-6.985 3.302-6.985 9.49zm8.401-5.173-1.22-6.348-15.712 3.022 1.22 6.347zm-9.076 3.163h7.568v-16h-7.568zm15.568-8v-1.221h-16v1.221zm-.572-4.192-2.442-6.103-14.855 5.942 2.441 6.103zm-9.869 4.868h1.22v-16h-1.22zm6.877-2.343 1.221-1.221-11.314-11.314-1.221 1.221zm172.525 202.767c-14.103-22.694-37.252-61.436-69.477-116.285l-13.796 8.105c32.228 54.851 55.465 93.746 69.683 116.625zM550.45 230.311c-10.075-15.763-17.775-28.113-23.125-37.082-2.677-4.49-4.73-8.073-6.186-10.782a71 71 0 0 1-1.675-3.281 21 21 0 0 1-.444-.994c-.107-.259-.142-.371-.141-.367l-15.281 4.742c.624 2.013 1.936 4.662 3.447 7.473 1.616 3.008 3.805 6.82 6.539 11.404 5.474 9.179 13.277 21.691 23.384 37.504zm-39.212-42.135h2.686v-16h-2.686zm10.686-8v-1.221h-16v1.221zm-8-9.221h-2.686v16h2.686zm-8.343 2.343-1.22 1.221 11.313 11.314 1.221-1.221zm11.186 2.583c-2.773-4.357-4.728-7.771-5.963-10.311-1.427-2.935-1.331-3.61-1.331-2.972h-16c0 3.404 1.519 7.042 2.941 9.967 1.614 3.319 3.93 7.311 6.854 11.906zm-15.294-5.283h9.765v-16h-9.765zm1.765-8v2.685h16v-2.685zm8 10.685h6.348v-16h-6.348zm4.779-.155 6.104 1.221 3.137-15.69-6.103-1.22zm15.455-4.771 1.221-5.127-15.565-3.706-1.221 5.127zm-8.073.876 6.348 1.221 3.022-15.712-6.348-1.221zm7.859 1.365h7.324v-16h-7.324zm11.661-1.278 7.568-4.883-8.674-13.445-7.568 4.883zm-1.206-4.949 3.662 2.442 8.875-13.313-3.662-2.442zm8.099 3.785h1.221v-16h-1.221zm9.221-8c0 .265-.075.639-.262.985-.168.311-.292.351-.086.194.537-.408 2.043-1.203 5.278-1.906l-3.399-15.635c-4.252.924-8.36 2.368-11.567 4.808-3.509 2.669-5.964 6.61-5.964 11.554zm.701-.955 3.662 1.22 5.06-15.178-3.663-1.221zm14.192-6.369v-2.441h-16v2.441zm-8 5.559h1.22v-16h-1.22zm-4.273-2.184c5.478 5.173 6.283 8.13 6.283 9.076h16c0-7.843-5.055-14.814-11.297-20.708zm14.283 1.076c-3.458 0-6.712 1.5-8.903 4.421-1.867 2.489-2.492 5.384-2.72 7.666l15.921 1.592c.097-.973.245-.519-.401.342a5 5 0 0 1-1.809 1.475 4.8 4.8 0 0 1-2.088.504zm-8.1 19.539 3.662 2.442 8.875-13.313-3.662-2.441zm8.1 3.785h1.22v-16h-1.22zm6.877-13.656-1.221-1.221-11.313 11.314 1.22 1.22zm1.123 4.436v-3.662h-16v3.662zm-8 4.338h3.662v-16h-3.662zm-3.214-3.911 33.691 56.641 13.752-8.18-33.692-56.64zm32.567 52.551v126.709h16V224.365zm175.522 16.804-2.441-2.441-11.314 11.314 2.441 2.441zm-8.098-4.784h-1.221v16h1.221zm-9.221 8v2.441h16v-2.441zm8 10.441h3.662v-16h-3.662zm-4.451-14.103v-2.442h-16v2.442zm-9.569-10.286-6.103 1.22 3.137 15.69 6.104-1.221zm-12.534 9.065v1.221h16v-1.221zm2.343 6.878 1.22 1.22 11.314-11.313-1.221-1.221zm8.817 3.324 4.883-1.22-3.88-15.522-4.883 1.22zm-280.748-72.27h4.882v-16h-4.882zm10.539-2.344 1.221-1.22-11.314-11.314-1.22 1.221zm-4.436 1.123h1.465v-16h-1.465zm-6.488-7.136c.461 4.246 1.467 8.515 3.693 11.929 2.526 3.872 6.545 6.437 11.584 6.437v-16c.262 0 .741.076 1.241.363.47.27.629.538.577.46-.069-.107-.292-.502-.543-1.367-.247-.852-.479-2.016-.646-3.551zm20.934 16.023 1.221-1.22-11.314-11.314-1.221 1.221zm-12.026-4.348 2.442 7.325 15.179-5.06-2.442-7.324zm2.031 4.795v8.789h16v-8.789zm8 .789h-4.883v16h4.883zm-12.883 8v2.441h16v-2.441zm8 10.441h4.883v-16h-4.883zm-3.117-7.978.489 177.491 16-.044-.489-177.491zm8.489 169.469H428.23v16h66.163zm-64.31.217-5.127-1.221-3.705 15.565 5.127 1.221zm-8.92-1.199-4.883 1.22 3.881 15.523 4.883-1.221zm2.715 3.325-1.221-1.221-11.314 11.314 1.221 1.22zm1.122 4.436V184.326h-16v188.721zm-.539-185.833c.594-1.536 1.15-2.046 1.331-2.183.103-.078.365-.273 1.218-.273v-16c-3.867 0-7.634 1.066-10.868 3.511-3.155 2.385-5.244 5.66-6.603 9.169zm2.549-2.456c4.74 0 9.987-.941 13.926-4.522l-10.763-11.839c.197-.179.206-.085-.295.058-.524.15-1.437.303-2.868.303zm8.545-2.442h2.441v-16h-2.441zm-.881-.722c3.612 1.649 5.949 2.919 7.274 3.812.683.46.787.616.636.448a4.7 4.7 0 0 1-.673-1.012 6.6 6.6 0 0 1-.684-2.957h16c0-3.388-1.842-5.727-2.762-6.747-1.087-1.205-2.386-2.199-3.575-3-2.419-1.63-5.697-3.33-9.572-5.099zm17.082 7.88 3.662-1.22-5.059-15.179-3.662 1.22zm-.72-1.027a1.8 1.8 0 0 1-.554-.281 2.2 2.2 0 0 1-.608-.639c-.093-.154-.052-.153.01.128.063.286.132.785.132 1.554h16c0-3.253-.55-6.795-2.422-9.914-2.032-3.386-5.184-5.54-8.852-6.413zm6.98 8.762h1.22v-16h-1.22zm6.877-2.343 2.442-2.442-11.314-11.313-2.442 2.441zm4.785-8.098v-2.442h-16v2.442zm-2.49-8.242c-1.37-1.301-2.105-2.214-2.45-2.748-.162-.252-.166-.309-.12-.182.048.13.177.539.177 1.162h-16c0 3.134 1.265 5.783 2.498 7.694 1.283 1.988 2.99 3.883 4.875 5.674zm-10.393-9.768h-6.348v16h6.348zm-4.779.155-6.103-1.221-3.138 15.69 6.103 1.22zm.328 6.624v-2.441h-16v2.441zm-2.343 3.216 3.662-3.663-11.314-11.313-3.662 3.662zm-1.995-1.319h16.113v-16h-16.113zm8.113-8v2.441h16v-2.441zm8 10.441h5.127v-16h-5.127zm13.127-8v-2.441h-16v2.441zm-2.878-8.587-1.465-1.221-10.243 12.292 1.465 1.22zm1.413 4.925v-1.221h-16v1.221zm-4.515 5.98 7.568-3.662-6.969-14.402-7.568 3.662zm-3.916-10.863v6.104h16v-6.104zm18.009 11.662h2.442v-16h-2.442zm-.529-.572c.085.034.034.026-.074-.066a1.1 1.1 0 0 1-.239-.28c-.073-.127.167.202.167 1.463h16c0-3.133-.575-6.426-2.275-9.401-1.774-3.105-4.456-5.299-7.637-6.572zm7.854-6.883h-1.221v16h1.221zm1.75.572c-.971-.388-1.111-.68-1.039-.579.026.037.031.061.021.028-.013-.045-.057-.216-.057-.566h-16c0 3.422.879 6.846 3.016 9.838 2.107 2.949 5.018 4.896 8.117 6.135zm38.834 4.498v2.442h16v-2.442zm8 10.442h3.662v-16h-3.662zm11.662-8v-2.442h-16v2.442zm-8-10.442h-3.662v16h3.662zm-79.878 9.419-1.221 6.348 15.713 3.022 1.22-6.348zm-1.364 7.859v3.662h16v-3.662zm8 11.662h1.22v-16h-1.22zm3.75-.411c7.483-2.494 9.132-9.743 9.132-14.913h-16c0 .63-.048 1.039-.092 1.272-.043.233-.068.211.021.033.098-.196.311-.534.696-.876a3.5 3.5 0 0 1 1.183-.695zm5.863-21.365-3.662-2.685-9.462 12.902 3.662 2.686zm62.953 9.625v1.221h16v-1.221zm6.147 9.004 5.127 1.22 3.706-15.565-5.127-1.22zm6.98 1.438h1.221v-16h-1.221zm9.221-8v-1.221h-16v1.221zm-2.344-6.878-2.441-2.441-11.314 11.314 2.442 2.441zm-10.484-4.42-3.906 1.221 4.772 15.271 3.906-1.22zm-5.614 12.519v3.662h16v-3.662zm13.657 9.319 2.441-2.442-11.313-11.314-2.442 2.442zm4.785-8.099v-1.22h-16v1.22zm-8-9.22h-2.442v16h2.442zm17.334 23.324h3.662v-16h-3.662zm10.522-3.884 3.662-6.104-13.72-8.232-3.662 6.104zm-3.198-18.22h-1.221v16h1.221zm-1.221 0c-3.852 0-6.806 1.906-8.77 3.869-1.912 1.913-3.374 4.333-4.546 6.773l14.425 6.924c.371-.773.697-1.346.965-1.757.273-.417.439-.595.47-.626.032-.032-.156.167-.594.382a4.5 4.5 0 0 1-1.95.435zm-20.451 14.104v1.465h16v-1.465zm8 9.465h5.127v-16h-5.127zm13.127-8v-1.465h-16v1.465zm-8-9.465h-5.127v16h5.127zm-151.183 15.334c1.286 1.415 2.027 2.526 2.426 3.324.39.78.376 1.102.376 1.061h16c0-5.869-3.186-10.993-6.963-15.147zm10.802 12.385h1.221v-16h-1.221zm7.021-2.49c1.301-1.371 2.214-2.105 2.748-2.45.252-.163.309-.166.182-.12-.131.048-.539.177-1.162.177v-16c-3.134 0-5.783 1.265-7.694 2.498-1.988 1.283-3.883 2.989-5.674 4.875zm9.768-10.393v-2.442h-16v2.442zm-8-10.442c-.584 0 .376-.143 1.691.734a6 6 0 0 1 2.031 2.315c.5 1 .616 1.912.616 2.51h-16c0 3.144 1.37 6.415 4.478 8.487 2.535 1.691 5.327 1.954 7.184 1.954zm-3.662-2.441h-10.01v16h10.01zm16.658 10.441c0-.645.213-1.468.724-2.18.447-.622.839-.766.642-.67-.206.101-.767.322-1.859.529-1.071.203-2.477.361-4.272.431l.627 15.988c4.517-.177 8.965-.825 12.547-2.581 1.878-.92 3.826-2.296 5.31-4.362 1.549-2.157 2.281-4.637 2.281-7.155zm-12.451 6.104v6.348h16v-6.348zm8 14.348h1.221v-16h-1.221zm7.014-2.483c2.336-2.454 3.718-2.644 4.216-2.644v-16c-6.337 0-11.629 3.227-15.802 7.609zm12.216-10.644c0-.859.202-.044-.684 1.137a5.1 5.1 0 0 1-2.007 1.595c-.763.34-1.376.385-1.646.385v-16c-3.173 0-6.716 1.179-9.147 4.42-2.107 2.809-2.516 6.066-2.516 8.463zm3.663-4.883v-2.442h-16v2.442zm-8-10.442h-2.442v16h2.442zm10.798 15.325v1.22h16v-1.22zm2.081 6.602 2.441 2.685 11.839-10.763-2.441-2.685zm8.361 5.304h1.22v-16h-1.22zm8.856-10.386-1.22-3.907-15.272 4.773 1.221 3.906zm-8.856-9.52h-2.442v16h2.442zm-29.24 10.685v2.442h16v-2.442zm8 10.442h7.568v-16h-7.568zm15.568-8v-2.442h-16v2.442zm-8-10.442h-7.568v16h7.568zm111.551 6.203-1.221 3.662 15.179 5.059 1.221-3.662zm-1.631 6.192v1.22h16v-1.22zm8 9.22h1.221v-16h-1.221zm6.877-2.343 2.442-2.441-11.314-11.314-2.441 2.441zm4.785-8.098v-2.441h-16v2.441zm-8-10.441h-2.441v16h2.441zm-158.245 4.052-1.221 1.22 11.314 11.314 1.221-1.221zm-3.564 6.877v1.221h16v-1.221zm8 9.221h4.883v-16h-4.883zm12.883-8v-1.221h-16v1.221zm-5.47-8.81-3.662-1.221-5.06 15.179 3.662 1.221zm7.48 24.134h4.883v-16h-4.883zm10.54-2.343 2.441-2.441-11.314-11.314-2.441 2.441zm4.784-8.098v-1.221h-16v1.221zm-9.315-9.112c-2.699.45-5.463 1.115-7.756 2.261-1.981.991-6.253 3.755-6.253 9.292h16c0 1.79-.731 3.202-1.468 4.062a4.8 4.8 0 0 1-.818.764c-.185.133-.301.191-.305.193-.008.004.054-.027.206-.083.15-.055.361-.124.646-.203.577-.16 1.358-.334 2.378-.504zm128.024 27.854h3.662v-16h-3.662zm11.662-8v-2.441h-16v2.441zm-8-10.441h-1.22v16h1.22zm-6.877 2.343-2.442 2.441 11.314 11.314 2.441-2.442zm-166.162 14.69v2.685h16v-2.685zm2.343 8.342 2.442 2.442 11.313-11.314-2.441-2.442zm8.099 4.785h1.22v-16h-1.22zm6.877-13.657-1.221-1.221-11.313 11.314 1.22 1.221zm1.123 4.436v-1.221h-16v1.221zm-1.855 3.901 1.221-1.465-12.291-10.243-1.221 1.465zm3.075-6.587v-1.22h-16v1.22zm-8-9.22h-3.662v16h3.662zm381.047-68.416v-2.442h-16v2.442zm-8-10.442h-1.221v16h1.221zm-6.877 2.343-2.442 2.442 11.314 11.314 2.441-2.442zm3.215 16.099h3.662v-16h-3.662zm-229.68 89.168v2.441h16v-2.441zm8 10.441h1.221v-16h-1.221zm6.878-2.343 2.441-2.441-11.313-11.314-2.442 2.441zm-3.216-16.098h-3.662v16h3.662zm123.25-122.657-2.442 2.441 11.314 11.314 2.442-2.441zm3.215.098h-1.22v16h1.22zm4.436 2.343-2.441-2.441-11.314 11.314 2.442 2.441zm-.098 3.216v-4.883h-16v4.883zm-12.997 1.364 6.103 4.883 9.995-12.494-6.103-4.883zm61.45-80.222v1.221h16v-1.22zm13.382 7.14 2.685-2.44-10.763-11.84-2.685 2.441zm5.304-8.36V48.34h-16v1.22zm-13.382-7.14-2.685 2.44 10.763 11.84 2.685-2.442zM633.999 312.785l2.442 2.441 11.314-11.314-2.442-2.441zm8.099 4.784h1.22v-16h-1.22zm9.22-8v-2.441h-16v2.441zm-8-10.441h-3.662v16h3.662zm8.545-65.674h-1.22v16h1.22zm-9.22 8v2.441h16v-2.441zm8 10.441h3.662v-16h-3.662zm9.319-13.656-2.442-2.442-11.314 11.314 2.442 2.441zm-4.38-24.617v2.441h16v-2.441zm2.343 8.098 2.442 2.442 11.313-11.314-2.441-2.441zm8.098 4.785h1.221v-16h-1.221zm9.221-8v-1.221h-16v1.221zm-.41-3.751-1.221-3.662-15.179 5.06 1.221 3.662zm-8.811-9.132h-2.441v16h2.441zm-6.535-13.973v1.465h16v-1.465zm8 9.465h5.127v-16h-5.127zm13.127-8v-1.465h-16v1.465zm-8-9.465h-5.127v16h5.127zm-12.451-6.103h-1.221v16h1.221zm-8.081 12.116 3.663 6.103 13.719-8.232-3.662-6.103zm10.522 9.987h3.663v-16h-3.663zm10.875-11.461c-1.171-2.44-2.634-4.86-4.546-6.773-1.964-1.964-4.918-3.869-8.77-3.869v16a4.5 4.5 0 0 1-1.95-.435c-.438-.215-.626-.414-.594-.382.031.031.198.208.47.626.268.41.595.984.965 1.756zm2.122-3.863v1.221h16v-1.221zm2.343 6.878 2.441 2.441L691.7 182.33l-2.442-2.441zm16.098-3.216v-3.662h-16v3.662zm-8-11.662h-2.441v16h2.441zm-5.657-2.539-2.441 2.441 11.313 11.314 2.442-2.442zm-4.784 8.098v1.22h16v-1.22zm8 9.22h1.22v-16h-1.22zm3.073-.217 5.127-1.221-3.706-15.565-5.127 1.221zm11.274-9.003v-1.221h-16v1.221zm-5.614-8.857-3.906-1.22-4.772 15.271 3.906 1.221zm-3.062-1.153v2.441h16v-2.441zm8 10.441h3.663v-16h-3.663zm11.663-8v-2.441h-16v2.441zm-8-10.441h-3.663v16h3.663zm18.173-32.19c.948-.699 2.295-1.778 3.333-3.21.807-1.113 3.618-5.769.091-10.472-1.327-1.77-2.997-2.593-3.976-2.97a11.4 11.4 0 0 0-2.713-.659c-1.411-.173-2.902-.135-4.248-.039l1.14 15.959c.933-.067 1.242-.029 1.154-.039-.045-.006-.474-.056-1.089-.293-.556-.215-1.923-.833-3.068-2.359a7.47 7.47 0 0 1-1.389-5.728c.26-1.509.914-2.474 1.145-2.791.448-.619.727-.721.129-.28zm-6.943-17.371h-13.672v16h13.672zm-21.672 8v1.221h16v-1.221zm7.242 9.185a6 6 0 0 1 .648.096l.043.011-.049-.017a2 2 0 0 1-.143-.061 3.5 3.5 0 0 1-.546-.323 5 5 0 0 1-1.509-1.78 4.95 4.95 0 0 1-.559-2.228h16c0-3.618-1.656-6.887-4.632-9.012-2.512-1.794-5.421-2.393-7.736-2.614zm-2.115-4.302v1.221h16v-1.221zm2.343-4.436-1.22 1.221 11.313 11.314 1.221-1.221zm-.151 13.432 7.324 5.126 9.175-13.107-7.324-5.127zm11.912 6.573h2.441v-16h-2.441zm4.24-.205 6.348-1.465-3.598-15.59-6.348 1.464zm-3.451-9.26v3.906h16V133.3zm8 11.906c4.072 0 7.955-1.79 10.384-5.555 2.041-3.163 2.498-6.887 2.498-10.013h-16c0 .856-.071 1.373-.126 1.629-.056.262-.06.088.183-.29a4.03 4.03 0 0 1 1.525-1.351c.716-.371 1.307-.42 1.536-.42zm4.882-7.568h7.569v-16h-7.569zm15.569-8v-1.221h-16v1.221zm-7.556-9.209a235 235 0 0 1-9.207-.708l-1.517 15.928q5.26.5 9.836.756zm-6.24.176-4.638-2.441-7.452 14.158 4.638 2.442zm-8.364-3.362h-2.442v16h2.442zm8.113-15.193v1.465h16v-1.465zm2.343 7.121 2.442 2.442 11.313-11.314-2.441-2.441zm13.755 2.442 2.442-2.442-11.314-11.313-2.441 2.441zm4.785-8.098v-3.907h-16v3.907zm-2.343-9.564-1.221-1.22-11.314 11.314 1.221 1.22zm-12.535-1.22-3.662 3.662 11.314 11.314 3.662-3.662zm-25.65 50.334v-.976h-16v.976zm-8-8.976h-13.671v16h13.671zm-8.015 2.343-2.441-2.441-11.314 11.313 2.442 2.442zm-.098 3.215c0-2.446.598-3.202.748-3.369.157-.174.87-.859 3.347-1.129l-1.729-15.906c-5.01.545-9.912 2.342-13.499 6.318-3.593 3.984-4.867 9.046-4.867 14.086zm8.887-18.108-1.22-1.22-11.314 11.313 1.221 1.221zm1.123 4.437a4.8 4.8 0 0 1-.505 2.088 5 5 0 0 1-1.474 1.809c-.862.646-1.316.498-.342.401l-1.592-15.921c-2.282.228-5.177.853-7.666 2.72-2.921 2.191-4.421 5.445-4.421 8.903zm3.667-7.903-2.442-3.906-13.568 8.48 2.442 3.906zm-1.226.334v-2.441h-16v2.441zm-.936 1.314c6.548-12.315 13.559-21.907 20.938-28.99L710.532 79.19c-8.898 8.541-16.86 19.62-23.984 33.021zm15.397-42.761h-2.685v16h2.685zm4.44 11.638c11.58-22.678 23.434-42.608 35.55-59.825l-13.085-9.208c-12.624 17.94-24.858 38.536-36.715 61.757zm29.008-56.43h74.462v-16H749.52zm66.949-10.748c-.915 2.503-4.501 9.276-11.463 21.086-6.782 11.505-16.381 27.16-28.817 46.993l13.556 8.5c12.466-19.88 22.154-35.678 29.044-47.368 6.71-11.383 11.181-19.543 12.706-23.713zm-40.644 68.725c-4.336 8.59-7.867 14.7-10.611 18.564-1.387 1.953-2.371 3.041-2.952 3.559-.837.746.001-.396 2.15-.396v16c3.939 0 6.893-2.231 8.498-3.662 1.86-1.658 3.643-3.836 5.349-6.236 3.44-4.844 7.396-11.796 11.85-20.62zm-19.413 29.727c0 .909-.058 1.519-.12 1.889-.065.392-.105.334.049.027.17-.339.625-1.074 1.574-1.706a5.2 5.2 0 0 1 2.835-.886v16c2.01 0 4.126-.525 6.04-1.801 1.863-1.243 3.082-2.893 3.862-4.452 1.446-2.892 1.76-6.221 1.76-9.071zm-1.788 2.179-5.127 6.103 12.252 10.291 5.127-6.103zm8.999 11.249v-2.442h-16v2.442zm-8-10.442h-3.662v16h3.662zm-11.662 8v2.442h16v-2.442zm6.431-5.403-6.104 1.221 3.138 15.689 6.104-1.221zm-4.955 1.077c-2.908.153-6.503.233-10.81.233v16c4.482 0 8.374-.083 11.651-.256zm-18.81 8.233v2.441h16v-2.441zm6.431 10.286 6.104 1.22 3.137-15.689-6.103-1.221zm13.329-.967 2.442-2.442-11.314-11.314-2.441 2.442zm-6.655-.876 5.127 2.442 6.879-14.446-5.127-2.442zm8.567 3.219c2.85 0 6.178-.314 9.071-1.76 1.559-.78 3.209-1.999 4.452-3.863 1.276-1.913 1.801-4.029 1.801-6.039h-16c0-.79.22-1.838.886-2.836.632-.948 1.367-1.404 1.705-1.573.308-.154.366-.115-.026-.049-.37.061-.98.12-1.889.12zm7.324-3.662h2.441v-16h-2.441zm-5.559-8v1.22h16v-1.22zm1.03-2.706-9.765 17.334 13.94 7.853 9.765-17.334zm-10.707 20.074c.069-.46.108-.22-.554 1.131-.576 1.174-1.467 2.768-2.738 4.828-2.534 4.109-6.309 9.643-11.389 16.658l12.959 9.384c5.174-7.145 9.212-13.044 12.048-17.643 1.415-2.294 2.599-4.372 3.489-6.189.802-1.639 1.695-3.709 2.008-5.796zm-2.545 21.653-1.22-1.221-11.314 11.314 1.221 1.22zm-6.877-3.564h-2.686v16h2.686zm-10.686 8v1.22h16v-1.22zm8 9.22h2.686v-16h-2.686zm-4.955-10.371c.001-.003-.034.109-.141.368-.102.248-.247.576-.443.994a72 72 0 0 1-1.676 3.28c-1.455 2.71-3.509 6.293-6.186 10.782-5.349 8.969-13.05 21.32-23.125 37.082l13.482 8.617c10.107-15.813 17.91-28.324 23.384-37.503 2.735-4.584 4.923-8.396 6.539-11.404 1.511-2.811 2.823-5.461 3.447-7.473zm-31.727 52.762c-32.226 54.849-55.375 93.591-69.478 116.285l13.59 8.445c14.218-22.879 37.455-61.773 69.683-116.625zm-54.683 120.508V223.633h-16v126.709zm-1.124-122.619 33.691-56.641-13.751-8.18-33.692 56.641zm26.815-52.731h3.663v-16h-3.663zm-4.337-8v3.662h16v-3.662zm2.343-1.995-1.221 1.221 11.314 11.314 1.22-1.221zm4.436 14.878h1.221v-16h-1.221zm5.658-1.344 3.662-2.441-8.875-13.313-3.662 2.442zm7.185-9.893c-.228-2.282-.853-5.178-2.72-7.667-2.191-2.92-5.444-4.42-8.902-4.42v16a4.8 4.8 0 0 1-2.089-.505 5 5 0 0 1-1.809-1.475c-.646-.861-.498-1.315-.401-.341zm-3.622-4.087c0 .211.064-1.055 2.215-4.414 1.968-3.071 5.104-7.021 9.59-11.9l-11.779-10.829c-4.791 5.212-8.613 9.929-11.284 14.1-2.488 3.884-4.742 8.437-4.742 13.043zm5.916-13.729h1.22v-16h-1.22zm-6.78-8v2.442h16v-2.442zm10.53 10.031 3.662-1.221-5.059-15.178-3.663 1.22zm2.915-1.011c2.618-.598 4.655-.923 6.18-1.045 1.614-.129 2.215.008 2.183-.001l4.123-15.459c-4.53-1.208-10.339-.399-16.051.907zm64.676-4.298c.44.586.662 1.145.769 1.535a3 3 0 0 1 .099.579h-16c0 2.195.462 4.993 2.332 7.486zm-7.132-5.886h-3.663v16h3.663zM735.074 144l-1.709 1.709 11.313 11.314 1.709-1.709zm2.684 15.266 6.103.976 2.528-15.799-6.104-.976zm-1.679-15.905-5.859-1.465-3.881 15.522 5.859 1.465zm-15.8 6.296v1.221h16v-1.221zm10.03-6.517-14.893-3.907-4.059 15.477 14.893 3.906zm-16.922-4.168h-7.325v16h7.325zm.675 8v-2.442h-16v2.442zm-8-10.442h-.732v16h.732zm-8.511 9.867 1.465 6.104 15.558-3.734-1.465-6.104zm9.244 12.237h7.324v-16h-7.324zm8.835-.144 6.348-1.221-3.022-15.712-6.348 1.221zm-2.946-7.224 1.221 5.127 15.565-3.706-1.221-5.127zm10.572 11.119 6.104-1.221-3.138-15.689-6.103 1.22zm4.535-1.066h6.348v-16h-6.348zm14.348-8v-2.197h-16v2.197zm-37.785-16.789h-4.639v16h4.639zm-11.296 12.438c-.829-1.244-.855-2.309-.855-2.485h16c0-1.802-.352-4.17-1.832-6.39zm7.145 5.515h1.221v-16h-1.221zm5.658-1.343 2.93-1.953-8.875-13.313-2.93 1.953zM332.324 0a35918 35918 0 0 0-33.74 99.774 12314 12314 0 0 1-34.222 100.256 35848 35848 0 0 0-33.74 99.774 35848 35848 0 0 0-33.74 99.774H.708a35875 35875 0 0 1 33.74-99.774 35881 35881 0 0 1 33.74-99.774A12295 12295 0 0 0 102.41 99.774 35918 35918 0 0 1 136.15 0z"/><mask id="a" width="335" height="368" x="66" y="17" fill="#000" maskUnits="userSpaceOnUse"><path fill="#fff" d="M66 17h335v368H66z"/><path d="M266.699 24.902 390.479 375h-90.333q-20.507-74.463-23.437-74.463h-96.924l18.799-64.697h59.57v-1.221q-24.902-78.37-36.133-128.906h-1.22q0 14.649-49.561 179.932-14.16 49.316-18.799 57.128H150v2.442l2.441 3.662L145.117 375h-1.221l-3.662-1.221-6.347 1.221h-6.104l-3.906-1.221-6.104 1.221H101.66l-7.568-1.221L90.43 375v-1.221L89.209 375H74.316v-16.113l1.221-7.569-1.22-3.662 1.22 1.221h1.22l1.221-1.221v-1.22h-3.662v-16.114l2.442-2.441h2.441l3.907 1.221v-1.221l-1.221-3.662h-2.686l-1.22 1.22-3.663-1.22 1.221-10.01h1.22l10.01-32.227 3.663 2.442 1.22-1.221v-1.221l-3.662-2.685 7.325-22.217h1.464q0 2.441 3.662 2.441v7.569l2.442-2.686v-10.986q0-3.906 7.324-3.906v-1.221l-1.221-3.662h-2.441q-4.15 0-7.324 12.451h-2.442v-1.221l7.325-23.681h4.882v2.441h3.907v-3.662l-2.686-3.662 2.686-7.568-1.221-1.221h-1.465q0 8.789-2.441 8.789h-1.221l27.344-82.031h1.22v2.441h2.442l-2.442-3.662q1.465-10.01 5.127-10.01l-1.464-1.221v-1.22l37.353-106.69zm-114.258 107.91v2.686l5.127 1.221v-1.221l-3.906-2.686zm-23.437 39.795v2.442l6.103-1.221v-1.221zm-1.221 22.461q0 7.325-5.127 7.325l1.221 1.22v1.221q-3.662 0-3.662 5.127h4.883q0-10.01 5.127-10.01v-4.883zm-13.672 17.334v1.221l2.442 2.441 1.22-1.22v-2.442zM150 227.295l-1.221 1.221v1.22h3.662zm-13.672 17.334q3.419 4.883 6.348 4.883v7.568h2.441l2.442-4.883q-2.441-5.126-7.325-7.568zm-16.113 10.01v1.22l2.441-2.441v-1.221zm-24.903 14.892v1.221l6.348 2.441-1.221-3.662h-5.126Zm42.237 0v4.883l1.221-1.221h1.464l-1.464-3.662zm-27.344 7.324v2.442h5.127v-2.442zm16.358 0-1.465 1.221v1.221l3.906 2.685h1.221v-1.22zm-5.127 12.452v2.441h8.789v-1.221l-3.662-1.22v1.22l-1.465-1.22zm-18.555 4.882v5.127h3.662q0-2.44 3.662-2.441v-2.686l-6.103 1.465zm-16.113 20.02q0 2.441-3.662 2.441l2.44 2.442h1.222l4.882-2.442v-2.441zm7.324 6.103q-4.883 0-4.883 3.907h4.883v-2.686l3.906-1.221-1.22-3.662-1.466 1.221h-1.22zm53.467 6.348q0 2.442-3.663 2.442 4.884 4.394 4.883 8.544H150l2.441-2.441v-1.221q0-6.103-4.882-7.324m-22.461 2.442v1.22l1.465 3.662h2.441v-4.882zm-6.104 10.009-2.441 9.766 2.441 7.568-8.789 3.662 1.465 3.663h2.441q0-2.686 4.883-4.883h6.104v2.441q3.417 0 5.127 7.568h3.662l-2.442-8.789q3.662 0 3.662-3.662l-2.441-7.568v-1.221h2.441v-3.662h-2.441l-2.441 2.442v1.22l1.22 11.231-11.23-8.789v-4.883l2.441-3.662v-1.221zm-16.113 13.428v1.465l6.103 2.441q0-2.44 3.907-2.441v-1.465l-2.686-2.441h-4.883zm-24.903 6.348v3.662q5.128-1.709 5.128-3.662h-5.127Z"/></mask><path fill="#193B5C" d="M266.699 24.902 390.479 375h-90.333q-20.507-74.463-23.437-74.463h-96.924l18.799-64.697h59.57v-1.221q-24.902-78.37-36.133-128.906h-1.22q0 14.649-49.561 179.932-14.16 49.316-18.799 57.128H150v2.442l2.441 3.662L145.117 375h-1.221l-3.662-1.221-6.347 1.221h-6.104l-3.906-1.221-6.104 1.221H101.66l-7.568-1.221L90.43 375v-1.221L89.209 375H74.316v-16.113l1.221-7.569-1.22-3.662 1.22 1.221h1.22l1.221-1.221v-1.22h-3.662v-16.114l2.442-2.441h2.441l3.907 1.221v-1.221l-1.221-3.662h-2.686l-1.22 1.22-3.663-1.22 1.221-10.01h1.22l10.01-32.227 3.663 2.442 1.22-1.221v-1.221l-3.662-2.685 7.325-22.217h1.464q0 2.441 3.662 2.441v7.569l2.442-2.686v-10.986q0-3.906 7.324-3.906v-1.221l-1.221-3.662h-2.441q-4.15 0-7.324 12.451h-2.442v-1.221l7.325-23.681h4.882v2.441h3.907v-3.662l-2.686-3.662 2.686-7.568-1.221-1.221h-1.465q0 8.789-2.441 8.789h-1.221l27.344-82.031h1.22v2.441h2.442l-2.442-3.662q1.465-10.01 5.127-10.01l-1.464-1.221v-1.22l37.353-106.69zm-114.258 107.91v2.686l5.127 1.221v-1.221l-3.906-2.686zm-23.437 39.795v2.442l6.103-1.221v-1.221zm-1.221 22.461q0 7.325-5.127 7.325l1.221 1.22v1.221q-3.662 0-3.662 5.127h4.883q0-10.01 5.127-10.01v-4.883zm-13.672 17.334v1.221l2.442 2.441 1.22-1.22v-2.442zM150 227.295l-1.221 1.221v1.22h3.662zm-13.672 17.334q3.419 4.883 6.348 4.883v7.568h2.441l2.442-4.883q-2.441-5.126-7.325-7.568zm-16.113 10.01v1.22l2.441-2.441v-1.221zm-24.903 14.892v1.221l6.348 2.441-1.221-3.662h-5.126Zm42.237 0v4.883l1.221-1.221h1.464l-1.464-3.662zm-27.344 7.324v2.442h5.127v-2.442zm16.358 0-1.465 1.221v1.221l3.906 2.685h1.221v-1.22zm-5.127 12.452v2.441h8.789v-1.221l-3.662-1.22v1.22l-1.465-1.22zm-18.555 4.882v5.127h3.662q0-2.44 3.662-2.441v-2.686l-6.103 1.465zm-16.113 20.02q0 2.441-3.662 2.441l2.44 2.442h1.222l4.882-2.442v-2.441zm7.324 6.103q-4.883 0-4.883 3.907h4.883v-2.686l3.906-1.221-1.22-3.662-1.466 1.221h-1.22zm53.467 6.348q0 2.442-3.663 2.442 4.884 4.394 4.883 8.544H150l2.441-2.441v-1.221q0-6.103-4.882-7.324m-22.461 2.442v1.22l1.465 3.662h2.441v-4.882zm-6.104 10.009-2.441 9.766 2.441 7.568-8.789 3.662 1.465 3.663h2.441q0-2.686 4.883-4.883h6.104v2.441q3.417 0 5.127 7.568h3.662l-2.442-8.789q3.662 0 3.662-3.662l-2.441-7.568v-1.221h2.441v-3.662h-2.441l-2.441 2.442v1.22l1.22 11.231-11.23-8.789v-4.883l2.441-3.662v-1.221zm-16.113 13.428v1.465l6.103 2.441q0-2.44 3.907-2.441v-1.465l-2.686-2.441h-4.883zm-24.903 6.348v3.662q5.128-1.709 5.128-3.662h-5.127Z"/><path fill="#FCC309" d="m266.699 24.902 6.6-2.333-1.65-4.667h-4.95zM390.479 375v7h9.899l-3.3-9.333zm-90.333 0-6.748 1.859 1.416 5.141h5.332zm-120.361-74.463-6.722-1.953-2.601 8.953h9.323zm18.799-64.697v-7h-5.256l-1.466 5.047zm59.57 0v7h7v-7zm0-1.221h7v-1.085l-.328-1.035zm-36.133-128.906 6.834-1.519-1.218-5.481h-5.616zm-1.22 0v-7h-7v7zM171.24 285.645l-6.705-2.011-.012.039-.011.04zm-18.799 57.128v7h3.985l2.034-3.426zm-2.441 0v-7h-7v7zm0 2.442h-7v2.119l1.176 1.764zm2.441 3.662 6.74 1.89.869-3.097-1.784-2.676zM145.117 375v7h5.307l1.433-5.11zm-1.221 0-2.213 6.641 1.078.359h1.135zm-3.662-1.221 2.214-6.64-1.737-.58-1.799.346zM133.887 375v7h.667l.655-.126zm-6.104 0-2.088 6.681 1.02.319h1.068zm-3.906-1.221 2.088-6.681-1.707-.534-1.754.351zM117.773 375v7h.694l.679-.136zm-16.113 0-1.114 6.911.553.089h.561zm-7.568-1.221 1.114-6.91-1.697-.274-1.63.544zM90.43 375h-7v9.712l9.213-3.071zm0-1.221h7V356.88l-11.95 11.95zM89.209 375v7h2.9l2.05-2.05zm-14.893 0h-7v7h7zm0-16.113-6.91-1.115-.09.554v.561zm1.221-7.569 6.91 1.115.275-1.697-.544-1.631-6.64 2.213Zm-1.22-3.662 4.95-4.949-11.591 7.163zm1.22 1.221-4.95 4.95 2.05 2.05h2.9zm1.22 0v7h2.9l2.05-2.05zm1.221-1.221 4.95 4.95 2.05-2.05v-2.9zm0-1.22h7v-7h-7zm-3.662 0h-7v7h7zm0-16.114-4.95-4.949-2.05 2.05v2.899zm2.442-2.441v-7h-2.9l-2.05 2.05zm2.441 0 2.088-6.682-1.02-.318H79.2v7Zm3.907 1.221-2.088 6.681 9.088 2.84v-9.521zm0-1.221h7v-1.136l-.36-1.078zm-1.221-3.662 6.64-2.214-1.595-4.786h-5.045zm-2.686 0v-7h-2.9l-2.05 2.05zm-1.22 1.22-2.214 6.641 4.104 1.368 3.06-3.059zm-3.663-1.22-6.948-.848-.693 5.679 5.428 1.81zm1.221-10.01v-7H69.34l-.75 6.153 6.948.847Zm1.22 0v7h5.156l1.53-4.924-6.685-2.076Zm10.01-32.227 3.883-5.824-7.79-5.194-2.777 8.942 6.685 2.076Zm3.663 2.442-3.883 5.824 4.775 3.183 4.057-4.057zm1.22-1.221 4.95 4.95 2.05-2.05v-2.9zm0-1.221h7v-3.547l-2.86-2.097zm-3.662-2.685-6.648-2.192-1.592 4.83 4.1 3.007zm7.325-22.217v-7H90.25l-1.586 4.808 6.648 2.192Zm1.464 0h7v-7h-7zm3.662 2.441h7v-7h-7zm0 7.569h-7v18.106l12.18-13.397zm2.442-2.686 5.179 4.709 1.821-2.002v-2.707zm7.324-14.892v7h7v-7zm0-1.221h7v-1.136l-.359-1.078zm-1.221-3.662 6.641-2.214-1.595-4.786h-5.046zm-9.765 12.451v7h5.439l1.344-5.271zm-2.442 0h-7v7h7zm0-1.221-6.687-2.068-.313 1.011v1.057zm7.325-23.681v-7h-5.163l-1.525 4.931zm4.882 0h7v-7h-7zm0 2.441h-7v7h7zm3.907 0v7h7v-7zm0-3.662h7v-2.292l-1.356-1.848zm-2.686-3.662-6.597-2.341-1.239 3.492 2.191 2.988zm2.686-7.568 6.597 2.34 1.478-4.165-3.126-3.125zm-1.221-1.221 4.95-4.95-2.051-2.05h-2.899zm-1.465 0v-7h-7v7zm-3.662 8.789-6.64-2.214-3.072 9.214h9.712zm27.344-82.031v-7h-5.046l-1.595 4.786zm1.22 0h7v-7h-7zm0 2.441h-7v7h7zm2.442 0v7h13.079l-7.255-10.883zm-2.442-3.662-6.926-1.014-.389 2.66 1.491 2.237zm5.127-10.01v7h19.335l-14.853-12.377zm-1.464-1.221h-7v3.279l2.518 2.099zm0-1.22-6.607-2.313-.393 1.123v1.19zm37.353-106.69v-7h-4.966l-1.641 4.687zm-23.682 107.91v-7h-7v7zm0 2.686h-7v5.529l5.379 1.281zm5.127 1.221-1.621 6.809 8.621 2.053v-8.862zm0-1.221h7v-3.682l-3.034-2.086zm-3.906-2.686 3.966-5.768-1.792-1.232h-2.174zm-24.658 39.795v-7h-7v7zm0 2.442h-7v8.538l8.373-1.674zm6.103-1.221 1.373 6.864 5.627-1.125v-5.739zm0-1.221h7v-7h-7zm-7.324 22.461v-7h-7v7zm-5.127 7.325v-7h-16.899l11.95 11.949zm1.221 1.22h7v-2.899l-2.05-2.05zm0 1.221v7h7v-7zm-3.662 5.127h-7v7h7zm4.883 0v7h7v-7zm5.127-10.01v7h7v-7zm0-4.883h7v-7h-7zm-16.114 17.334v-7h-7v7zm0 1.221h-7v2.9l2.051 2.05zm2.442 2.441-4.95 4.95 4.95 4.95 4.949-4.95zm1.22-1.22 4.95 4.949 2.05-2.05v-2.899zm0-2.442h7v-7h-7zM150 227.295l4.95-4.95-4.95-4.95-4.95 4.95zm-1.221 1.221-4.949-4.95-2.051 2.05v2.9zm0 1.22h-7v7h7zm3.662 0v7h16.9l-11.95-11.949zm-16.113 14.893v-7h-13.444l7.71 11.014zm6.348 4.883h7v-7h-7zm0 7.568h-7v7h7zm2.441 0v7h4.326l1.935-3.869zm2.442-4.883 6.261 3.131 1.527-3.056-1.468-3.084zm-7.325-7.568 3.131-6.261-1.478-.739h-1.653zm-20.019 10.01-4.95-4.95-2.05 2.05v2.9zm0 1.22h-7v16.9l11.95-11.95zm2.441-2.441 4.95 4.95 2.05-2.051v-2.899zm0-1.221h7v-16.899l-11.949 11.95zm-27.344 17.334v-7h-7v7zm0 1.221h-7v4.808l4.488 1.725 2.513-6.533Zm6.348 2.441-2.513 6.534 13.845 5.324-4.691-14.071zm-1.221-3.662 6.641-2.213-1.595-4.787h-5.046zm37.11 0v-7h-7v7zm0 4.883h-7v16.9l11.95-11.95zm1.221-1.221v-7h-2.9l-2.05 2.051zm1.464 0v7h10.34l-3.84-9.599zm-1.464-3.662 6.499-2.599-1.76-4.401h-4.739zm-28.565 7.324v-7h-7v7zm0 2.442h-7v7h7zm5.127 0v7h7v-7zm0-2.442h7v-7h-7zm11.231 0 5.106-4.787-4.516-4.817-5.072 4.227zm-1.465 1.221-4.482-5.377-2.518 2.099v3.278zm0 1.221h-7v3.682l3.034 2.086zm3.906 2.685-3.966 5.769 1.792 1.231h2.174zm1.221 0v7h7v-7zm0-1.22h7v-2.768l-1.894-2.02zm-8.789 8.545v-7h-7v7zm0 2.441h-7v7h7zm8.789 0v7h7v-7zm0-1.221h7v-5.045l-4.787-1.595zm-3.662-1.22 2.213-6.641-9.213-3.071v9.712zm0 1.22-4.482 5.378 11.482 9.568v-14.946zm-1.465-1.22 4.481-5.378-1.947-1.622h-2.534zm-22.217 4.882 5.377-4.481-12.377-14.853v19.334zm0 5.127h-7v7h7zm3.662 0v7h7v-7zm3.662-2.441v7h7v-7zm0-2.686h7v-8.878l-8.634 2.072zm-6.103 1.465-5.378 4.482 2.783 3.34 4.228-1.015zm-17.334 18.555v-7h-7v7zm-3.662 2.441v-7h-16.9l11.95 11.95zm2.44 2.442-4.949 4.95 2.05 2.05h2.9v-7Zm1.222 0v7h1.652l1.478-.739zm4.882-2.442 3.13 6.261 3.87-1.934v-4.327zm0-2.441h7v-7h-7zm2.442 6.103v7h7v-7zm-4.883 3.907h-7v7h7zm4.883 0v7h7v-7zm0-2.686-2.088-6.681-4.912 1.535v5.146zm3.906-1.221 2.088 6.682 6.809-2.128-2.256-6.767zm-1.22-3.662 6.64-2.213-3.243-9.73-7.879 6.566zm-1.466 1.221v7h2.535l1.947-1.622-4.481-5.378Zm-1.22 0v-7h-7v7zm53.467 8.789 1.697-6.791-8.697-2.174v8.965zm-3.663 2.442v-7h-18.241l13.559 12.203zm4.883 8.544h-7v7h7zm1.221 0v7h2.899l2.051-2.05zm2.441-2.441 4.95 4.95 2.05-2.05v-2.9zm-27.343-6.103v-7h-7v7zm0 1.22h-7v1.348l.5 1.252zm1.465 3.662-6.5 2.6 1.76 4.4h4.74zm2.441 0v7h7v-7zm0-4.882h7v-7h-7zm-10.01 10.009 2.214-6.64-7.171-2.391-1.834 7.334zm-2.441 9.766-6.791-1.698-.486 1.942.615 1.905zm2.441 7.568 2.692 6.462 5.948-2.478-1.978-6.133zm-8.789 3.662-2.692-6.461-6.37 2.654 2.563 6.407zm1.465 3.663-6.499 2.599 1.76 4.401h4.739zm2.441 0v7h7v-7zm4.883-4.883v-7h-1.502l-1.37.616zm6.104 0h7v-7h-7zm0 2.441h-7v7h7zm5.127 7.568-6.828 1.542 1.232 5.458h5.596zm3.662 0v7h9.209l-2.465-8.873zm-2.442-8.789v-7h-9.209l2.465 8.874zm3.662-3.662h7v-1.101l-.338-1.048zm-2.441-7.568h-7v1.101l.338 1.048zm0-1.221v-7h-7v7zm2.441 0v7h7v-7zm0-3.662h7v-7h-7zm-2.441 0v-7h-2.899l-2.051 2.05zm-2.441 2.442-4.95-4.95-2.05 2.05v2.9zm0 1.22h-7v.38l.041.377zm1.22 11.231-4.314 5.512 13.066 10.226-1.793-16.495zm-11.23-8.789h-7v3.41l2.686 2.102zm0-4.883-5.825-3.883-1.175 1.763v2.12zm2.441-3.662 5.825 3.883 1.175-1.764v-2.119zm0-1.221h7v-5.045l-4.786-1.596zm-19.775 12.207-4.95-4.95-2.05 2.051v2.899zm0 1.465h-7v4.739l4.4 1.76zm6.103 2.441-2.599 6.5 9.599 3.84v-10.34zm3.907-2.441v7h7v-7zm0-1.465h7v-3.097l-2.292-2.083zm-2.686-2.441 4.709-5.18-2.003-1.82h-2.706zm-4.883 0v-7h-2.899l-2.05 2.05zm-27.344 8.789v-7h-7v7zm0 3.662h-7v9.712l9.214-3.071-2.213-6.641Zm5.128-3.662h7v-7h-7zM260.1 27.236l123.779 350.097 13.199-4.666L273.299 22.569zM390.479 368h-90.333v14h90.333zm-83.584 5.141c-6.841-24.84-12.239-43.555-16.185-56.09-1.965-6.244-3.611-11.086-4.924-14.423-.642-1.633-1.291-3.129-1.939-4.305-.306-.556-.772-1.339-1.41-2.076a8.2 8.2 0 0 0-1.636-1.456 7.36 7.36 0 0 0-4.092-1.254v14c-1.8 0-3.084-.703-3.691-1.109a5.8 5.8 0 0 1-1.167-1.019c-.302-.349-.387-.551-.266-.331.207.376.595 1.206 1.173 2.676 1.129 2.869 2.657 7.334 4.598 13.5 3.867 12.286 9.211 30.803 16.042 55.605zm-30.186-79.604h-96.924v14h96.924zm-90.202 8.953 18.799-64.697-13.444-3.906-18.799 64.697zm12.077-59.65h59.57v-14h-59.57zm66.57-7v-1.221h-14v1.221zm-.328-3.341c-16.571-52.148-28.547-94.898-35.971-128.305l-13.667 3.037c7.55 33.976 19.662 77.164 36.295 129.508zM222.021 98.713h-1.22v14h1.22zm-8.22 7c0 .519-.145 1.969-.658 4.742-.487 2.631-1.232 6.081-2.251 10.383-2.037 8.598-5.109 20.361-9.23 35.323-8.239 29.912-20.611 72.394-37.127 127.473l13.41 4.021c16.525-55.11 28.933-97.711 37.214-127.776 4.139-15.026 7.262-26.975 9.356-35.814 1.046-4.415 1.849-8.114 2.395-11.063.519-2.806.891-5.367.891-7.289zm-49.289 178c-4.71 16.403-8.608 29.286-11.701 38.684-3.192 9.7-5.308 14.982-6.389 16.803l12.038 7.147c2.012-3.388 4.575-10.231 7.65-19.574 3.173-9.645 7.128-22.723 11.858-39.197zm-12.071 52.06H150v14h2.441zm-9.441 7v2.442h14v-2.442zm1.176 6.325 2.441 3.662 11.649-7.766-2.442-3.662zm1.525-2.111-7.324 26.123 13.48 3.78 7.324-26.123zM145.117 368h-1.221v14h1.221zm.993.359-3.662-1.22-4.427 13.281 3.662 1.221zm-7.198-1.454-6.347 1.221 2.644 13.748 6.347-1.221zM133.887 368h-6.104v14h6.104zm-4.016.319-3.906-1.221-4.176 13.363 3.906 1.22zm-7.367-1.404-6.103 1.221 2.745 13.728 6.104-1.221zM117.773 368H101.66v14h16.113zm-14.998.089-7.569-1.22-2.229 13.821 7.569 1.221zm-10.897-.95-3.662 1.22 4.427 13.282 3.662-1.221zM97.43 375v-1.221h-14V375zm-11.95-6.17-1.22 1.22 9.899 9.9 1.22-1.221-9.9-9.899Zm3.729-.83H74.316v14H89.21zm-7.893 7v-16.113h-14V375zm-.089-14.999 1.22-7.568-13.82-2.229-1.221 7.568zm.95-10.896-1.22-3.662-13.281 4.427 1.22 3.662zm-12.81 3.501 1.22 1.221 9.9-9.9-1.22-1.22zm6.17 3.271h1.22v-14h-1.22zm6.17-2.05 1.221-1.221-9.9-9.899-1.22 1.22 9.9 9.9Zm3.272-6.171v-1.22h-14v1.22zm-7-8.22h-3.663v14h3.662zm3.337 7v-16.114h-14v16.114zm-2.05-11.164 2.442-2.441-9.9-9.9-2.441 2.442 9.9 9.899Zm-2.508-.391h2.441v-14h-2.441zm.353-.319 3.906 1.221 4.176-13.363-3.906-1.221zm12.995-5.46v-1.221h-14v1.221zm-.36-3.435-1.22-3.662-13.282 4.427 1.22 3.662zm-7.861-8.448h-2.686v14h2.686zm-7.636 2.05-1.22 1.221 9.9 9.899 1.22-1.221zm5.943-.47-3.662-1.221-4.427 13.282 3.662 1.22zm1.073 6.267 1.22-10.01-13.896-1.694-1.221 10.009zm-5.728-3.857h1.22v-14h-1.22zm7.906-4.924 10.01-32.226-13.37-4.153-10.01 32.227zm-.558-28.478 3.662 2.441 7.766-11.649-3.663-2.441zm12.494 1.567 1.221-1.221-9.9-9.9-1.22 1.221 9.9 9.9Zm3.271-6.171v-1.221h-14v1.221zm-2.86-6.865-3.662-2.686-8.28 11.29 3.663 2.685zm-1.154 5.151 7.325-22.217-13.297-4.384-7.324 22.217zm.677-17.409h1.464v-14h-1.465zm-5.536-7c0 2.853 1.237 5.792 4.033 7.655 2.295 1.53 4.852 1.786 6.629 1.786v-14c-.663 0 .063-.15 1.137.566a5.03 5.03 0 0 1 1.691 1.931c.419.837.51 1.59.51 2.062zm3.662 2.441v7.569h14v-7.569zm12.18 12.278 2.441-2.686-10.359-9.417-2.441 2.685zm4.262-7.395v-10.986h-14v10.986zm0-10.986c0 .485-.129 1.236-.606 2.001-.464.742-1.016 1.111-1.269 1.246-.217.116-.205.058.22-.017.408-.073 1.05-.136 1.979-.136v-14c-2.835 0-6.048.339-8.787 1.8-1.474.786-2.941 1.968-4.015 3.687-1.089 1.741-1.522 3.632-1.522 5.419zm7.324-3.906v-1.221h-14v1.221zm-.359-3.435-1.221-3.662-13.281 4.428 1.22 3.662zm-7.862-8.448h-2.441v14h2.441zm-2.441 0c-5.285 0-8.406 3.955-9.94 6.564-1.718 2.921-3.052 6.783-4.167 11.158l13.566 3.458c1.001-3.926 1.945-6.289 2.668-7.518.353-.6.468-.606.221-.409-.327.26-1.15.747-2.348.747zm-7.324 12.451h-2.442v14h2.442zm4.558 7v-1.221h-14v1.221zm-.312.848 7.324-23.682-13.375-4.137-7.324 23.682zm.637-18.75h4.882v-14h-4.882zm-2.118-7v2.441h14v-2.441zm7 9.441h3.907v-14h-3.907zm10.907-7v-3.662h-14v3.662zm-1.356-7.802-2.685-3.662-11.29 8.279 2.686 3.663zm-1.733 2.819 2.686-7.569-13.194-4.681-2.686 7.568zm1.038-14.859-1.22-1.221-9.9 9.9 1.221 1.22zm-6.17-3.271h-1.465v14h1.465zm-8.465 7c0 2.767-.209 4.193-.355 4.718-.078.281.008-.244.604-.96.336-.403.88-.92 1.68-1.331a5.76 5.76 0 0 1 2.63-.638v14c2.85 0 5.064-1.41 6.445-3.068 1.207-1.449 1.801-3.072 2.13-4.256.668-2.404.866-5.373.866-8.465zm4.559 1.789h-1.221v14h1.221zm5.42 9.214 27.344-82.032-13.282-4.427-27.344 82.031zm20.703-77.245h1.22v-14h-1.22zm-5.78-7v2.441h14v-2.441zm7 9.441h2.442v-14h-2.442zm8.266-10.883-2.441-3.662-11.649 7.766 2.441 3.662zm-1.339 1.235c.215-1.474.456-2.656.704-3.579.253-.942.478-1.487.614-1.751.149-.291.069-.01-.425.387-.605.486-1.56.919-2.693.919v-14c-5.101 0-7.996 3.683-9.343 6.312-1.378 2.691-2.184 6.094-2.71 9.684zm2.682-16.401-1.465-1.221-8.963 10.755 1.465 1.221zm1.054 4.156v-1.22h-14v1.22zm-.394 1.093 37.354-106.69-13.214-4.626-37.353 106.69zm30.747-102.003h90.576v-14h-90.576zm-30.682 100.91v2.686h14v-2.686zm5.379 9.496 5.127 1.22 3.243-13.619-5.127-1.221zm13.748-5.589v-1.221h-14v1.221zm-3.034-6.989-3.906-2.686-7.932 11.537 3.907 2.685zm-7.872-3.918h-1.221v14h1.221zm-31.658 46.795v2.442h14v-2.442zm8.373 9.306 6.103-1.221-2.745-13.728-6.104 1.221zm11.73-8.085v-1.221h-14v1.221zm-7-8.221h-6.103v14h6.103zm-14.324 29.461c0 .835-.075 1.348-.137 1.614-.062.265-.079.15.121-.135a2.94 2.94 0 0 1 1.123-.932c.471-.225.789-.222.766-.222v14c3.606 0 7.208-1.429 9.58-4.817 2.053-2.934 2.547-6.464 2.547-9.508zm-3.076 12.274 1.22 1.221 9.9-9.899-1.221-1.221zm-.83-3.729v1.221h14v-1.221zm7-5.779c-3.061 0-6.292 1.201-8.443 4.213-1.841 2.578-2.219 5.583-2.219 7.914h14c0-.46.043-.642.038-.622-.005.023-.091.375-.426.845a4.1 4.1 0 0 1-1.592 1.314c-.642.299-1.155.336-1.358.336zm-3.662 19.127h4.883v-14h-4.883zm11.883-7c0-1.389.09-2.438.22-3.201.064-.376.133-.651.192-.842.059-.193.1-.274.1-.273-.005.009-.22.415-.81.799-.626.407-1.239.507-1.575.507v-14c-2.046 0-4.154.517-6.062 1.759-1.872 1.218-3.155 2.875-4.014 4.552-1.614 3.153-2.051 6.992-2.051 10.699zm5.127-10.01v-4.883h-14v4.883zm-7-11.883h-2.442v14h2.442zm-23.114 24.334v1.221h14v-1.221zm2.051 6.171 2.441 2.441 9.899-9.899-2.441-2.442zm12.34 2.441 1.221-1.221-9.899-9.899-1.221 1.221zm3.271-6.17v-2.442h-14v2.442zm-7-9.442h-3.662v14h3.662zm27.277 16.943-1.22 1.221 9.899 9.899 1.221-1.22zm-3.271 6.171v1.22h14v-1.22zm7 8.22h3.662v-14h-3.662zm8.612-11.949-2.441-2.442-9.9 9.9 2.442 2.441zm-26.797 23.856c1.368 1.955 2.937 3.792 4.762 5.196 1.839 1.415 4.321 2.673 7.32 2.673v-14c1.046 0 1.493.444 1.216.231-.291-.224-.919-.828-1.829-2.128zm5.082.869v7.568h14v-7.568zm7 14.568h2.441v-14h-2.441zm8.702-3.869 2.442-4.883-12.522-6.261-2.442 4.883zm2.501-11.023c-2.27-4.766-5.804-8.465-10.514-10.82l-6.261 12.522c1.8.9 3.149 2.247 4.135 4.317zm-13.645-11.559h-3.906v14h3.906zm-27.019 17.01v1.22h14v-1.22zm11.95 6.17 2.441-2.441-9.899-9.9-2.442 2.442zm4.491-7.391v-1.221h-14v1.221zm-11.949-6.17-2.442 2.441 9.9 9.899 2.441-2.441zm-29.394 22.283v1.221h14v-1.221zm4.487 7.754 6.347 2.442 5.026-13.067-6.348-2.441zm15.501-6.305-1.221-3.662-13.281 4.427 1.22 3.662zm-7.862-8.449h-5.126v14h5.126zm30.11 7v4.883h14v-4.883zm11.95 9.833 1.22-1.221-9.899-9.899-1.221 1.22zm-3.729.829h1.464v-14h-1.464zm7.964-9.599-1.465-3.662-12.999 5.199 1.465 3.662zm-7.964-8.063h-1.221v14h1.221zm-35.565 14.324v2.442h14v-2.442zm7 9.442h5.127v-14h-5.127zm12.127-7v-2.442h-14v2.442zm-7-9.442h-5.127v14h5.127zm6.749 1.623-1.465 1.221 8.963 10.755 1.465-1.221zm-3.983 6.598v1.221h14v-1.221zm3.034 6.989 3.906 2.686 7.932-11.537-3.907-2.685zm7.872 3.917h1.221v-14h-1.221zm8.221-7v-1.22h-14v1.22zm-1.894-6.008-3.662-3.906-10.213 9.575 3.662 3.906zm-20.895 13.333v2.441h14v-2.441zm7 9.441h8.789v-14h-8.789zm15.789-7v-1.221h-14v1.221zm-4.787-7.861-3.662-1.221-4.427 13.281 3.662 1.221zm-12.875 5.42v1.22h14v-1.22zm11.481-4.157-1.465-1.221-8.963 10.755 1.465 1.221zm-5.946-2.843h-3.662v14h3.662zm-29.217 11.882v5.127h14v-5.127zm7 12.127h3.662v-14h-3.662zm10.662-7a4.7 4.7 0 0 1-.51 2.063 5.04 5.04 0 0 1-1.692 1.931c-1.074.716-1.8.565-1.136.565v-14c-1.777 0-4.335.256-6.629 1.786-2.796 1.864-4.033 4.802-4.033 7.655zm3.662-2.441v-2.686h-14v2.686zm-8.634-9.492-6.103 1.465 3.267 13.613 6.104-1.465zm.908 3.79-1.221-1.465-10.755 8.963 1.221 1.465zm-29.711 23.036c0-.472.091-1.226.51-2.062a5.03 5.03 0 0 1 1.691-1.931c1.074-.716 1.8-.566 1.137-.566v14c1.777 0 4.334-.256 6.629-1.786 2.796-1.863 4.033-4.802 4.033-7.655zm-1.612 7.391 2.441 2.442 9.9-9.9-2.442-2.441zm7.39 4.492h1.222v-14h-1.221v14Zm4.352-.739 4.883-2.442-6.261-12.522-4.883 2.442zm8.752-8.703v-2.441h-14v2.441zm-7-9.441h-4.882v14h4.882zm2.442 6.103c-2.376 0-5.453.445-8.035 2.511-2.88 2.305-3.848 5.549-3.848 8.396h14c0 .066-.01.446-.233.983a4 4 0 0 1-1.173 1.553c-.955.764-1.59.557-.711.557zm-4.883 17.907h4.883v-14h-4.883zm11.883-7v-2.686h-14v2.686zm-4.912 3.996 3.906-1.221-4.176-13.363-3.906 1.221zm8.459-10.116-1.221-3.662-13.281 4.427 1.22 3.662zm-12.343-6.826-1.465 1.221 8.963 10.755 1.465-1.221zm3.016-.402h-1.22v14h1.22zm-8.22 7v2.441h14v-2.441zm53.467 8.789c0-.472.091-1.225.51-2.062a5.03 5.03 0 0 1 1.691-1.931c1.074-.716 1.8-.565 1.136-.565v14c1.778 0 4.335-.257 6.63-1.786 2.796-1.864 4.033-4.803 4.033-7.656zm-1.345 7.645c1.247 1.122 1.923 2.002 2.267 2.603.165.289.238.487.27.597a.7.7 0 0 1 .028.141h14c0-5.657-3.314-10.251-7.2-13.747zm9.565 10.341H150v-14h-1.221zm6.171-2.05 2.441-2.441-9.899-9.9-2.442 2.442zm4.491-7.391v-1.221h-14v1.221zm0-1.221c0-2.9-.572-6.029-2.396-8.765-1.919-2.878-4.731-4.586-7.789-5.35l-3.395 13.582c.145.037.097.046-.049-.051a1.5 1.5 0 0 1-.416-.416c-.097-.145-.087-.194-.051-.048.039.155.096.487.096 1.048zm-41.343-4.882v1.22h14v-1.22zm.5 3.82 1.465 3.662 12.999-5.199-1.465-3.662zm7.965 8.062h2.441v-14h-2.441zm9.441-7v-4.882h-14v4.882zm-7-11.882h-3.906v14h3.906zm-16.801 15.312-2.441 9.765 13.582 3.396 2.441-9.766zm-2.312 13.612 2.441 7.568 13.324-4.298-2.441-7.568zm6.411-1.042-8.789 3.662 5.384 12.923 8.789-3.662zm-12.596 12.723 1.465 3.662 12.998-5.199-1.465-3.662zm7.964 8.063h2.441v-14h-2.441zm9.441-7c0 .653-.156 1.239-.374 1.697-.205.429-.416.65-.455.689-.037.036.041-.049.321-.226.275-.175.684-.399 1.264-.66l-5.745-12.767c-2.022.91-4.089 2.103-5.74 3.753-1.734 1.735-3.271 4.272-3.271 7.514zm-2.117 2.117h6.104v-14h-6.104zm-.896-7v2.441h14v-2.441zm7 9.441a4.07 4.07 0 0 1-2.141-.611c-.515-.326-.702-.627-.664-.571.037.055.198.317.419.905.216.575.452 1.358.685 2.387l13.656-3.083c-.647-2.865-1.598-5.742-3.169-8.061-1.672-2.468-4.577-4.966-8.786-4.966zm5.127 7.568h3.662v-14h-3.662zm10.406-8.873-2.441-8.789-13.489 3.747 2.441 8.789zm-9.186.084c2.3 0 5.311-.579 7.697-2.965s2.965-5.397 2.965-7.697h-14c0 .142-.03-1.037 1.135-2.203s2.345-1.135 2.203-1.135zm10.324-12.811-2.441-7.568-13.324 4.298 2.441 7.568zm-2.103-5.419v-1.221h-14v1.221zm-7 5.779h2.441v-14h-2.441zm9.441-7v-3.662h-14v3.662zm-7-10.662h-2.441v14h2.441zm-7.391 2.05-2.441 2.442 9.899 9.899 2.442-2.441zm-4.491 7.392v1.22h14v-1.22zm.041 1.977 1.22 11.23 13.918-1.513-1.22-11.23zm12.493 4.961-11.23-8.789-8.628 11.025 11.23 8.789zm-8.544-3.276v-4.883h-14v4.883zm-1.176-1 2.442-3.662-11.649-7.766-2.442 3.662zm3.617-7.545v-1.221h-14v1.221zm-4.786-7.862-3.662-1.22-4.427 13.281 3.662 1.221zm-28.99 18.848v1.465h14.001v-1.465h-14Zm4.401 7.964 6.104 2.442 5.199-12.999-6.103-2.441zm15.703-4.058c0 .54-.113 1.353-.579 2.226a5 5 0 0 1-1.734 1.879c-.991.62-1.58.454-.78.454v-14c-1.805 0-4.347.241-6.64 1.674-2.842 1.776-4.267 4.715-4.267 7.767zm3.907-2.441v-1.465h-14v1.465zm-2.292-6.645-2.685-2.441-9.418 10.359 2.686 2.442zm-7.394-4.261h-4.883v14h4.883zm-9.832 2.05-2.442 2.441 9.9 9.9 2.441-2.442zm-29.395 13.739v3.662h14v-3.662zm9.214 10.303c1.97-.657 4.014-1.511 5.7-2.715 1.551-1.108 4.214-3.566 4.214-7.588h-14c0-1.3.449-2.323.884-2.965.392-.579.754-.831.765-.839.03-.022-.093.068-.46.237-.356.164-.856.363-1.53.588zm2.914-17.303h-5.127v14h5.127z" mask="url(#a)"/><path fill="#193B5C" d="M418.221 24.902h74.463q18.554 26.367 36.132 60.791h-2.685q12.207 11.72 22.461 31.006v2.442l-2.442 3.906q4.884.488 4.883 3.662l-1.221 1.221q11.23 1.22 11.231 12.451l-2.441 2.441H544.93v2.442h-8.789v2.441h-7.325l-14.892 3.906v-1.22l-10.01 2.441-2.441-2.441h-3.662q0 3.662-2.686 3.662h-1.221l-9.765-17.334v-1.221h2.441q0 3.662 7.324 3.662l5.127-2.441 2.442 2.441 6.103-1.221v-2.441q-6.592 0-11.23-6.348l-6.104-1.22v-2.442h-3.662v2.442h-5.127q-3.662 0-3.662-7.325-5.372 0-18.555-26.123-37.353-59.57-41.015-69.58m325.927 349.854-1.22-1.221 1.22-33.447v-48.584q6.104-7.324 13.672-7.324l-2.441-3.662v-6.348l-10.01-2.441v-11.231l2.442-2.441-2.442-3.662v-34.913l1.221-37.109q0-8.789 34.912-63.232l1.221 1.22 2.441-2.441h-2.441l37.109-65.918h2.686v212.402q0 2.442-5.127 2.442v1.22q5.127 0 5.127 2.442v88.135q0 2.44-6.348 2.441v2.441h6.348v8.789l-2.686 2.442h-40.771l-8.79-1.221-4.882 1.221h-11.231l-1.22-1.221-1.221 1.221zm51.026-8.545v-2.686l-2.442-2.441v5.127zM467.781 41.016v1.22l2.686 2.442v-1.221zM779.061 356.2h-3.907v1.221l1.221 1.221zM417 49.072h2.441l42.237 72.022q-2.442 0-2.442 3.662-7.568 0-7.568 8.545l-10.986-1.221v1.221q0 2.93-13.672 6.347l-2.442 2.442h-1.464l-4.883-6.104H417zm384.277 297.119h2.442l-4.883-3.662h-2.441v1.221zm-18.554-4.882v-2.442h-6.348v2.442zm-12.452-6.348-3.662-3.662-1.22 3.662v1.221zm35.889-20.996 7.569-3.662v-1.221h-3.663q-2.44 0-2.441 3.662h-2.686v1.221zm-20.996-10.01v-4.883l-2.441 2.442zM517.586 100.586l-1.221 1.221v3.906l2.442 2.441 2.441-2.441v-1.465zm227.783 186.035-1.221-1.221v-6.103l2.442-2.686h3.906l2.442 2.686v2.441q-2.442 4.394-7.569 6.104zM516.365 115.479v10.009q-5.127.49-5.127 3.662v1.221h7.569q0 7.569 4.882 7.568v-3.906l6.348 1.465h2.442l7.324-5.127-1.221-1.221v-1.22q0-3.174 5.127-3.662v-1.221h-13.672q-11.23-3.419-11.23-7.568zm293.701 166.259 6.104-1.22v-1.221h-1.221l-6.103 1.221v1.22zM534.92 125.488v4.883l-2.441 2.441h-1.221l-2.442-2.441zm-68.359 9.278h2.685l3.662 4.882-3.662 2.442h-2.685l-3.663-3.662zm-23.438 2.441q5.616 2.441 6.104 4.883l-2.442 6.348q2.442 0 2.442-3.907h7.568l3.662-2.441h1.221l2.441 2.441-2.441 3.907v1.22h2.441q6.348-2.685 6.348-5.127h3.662q7.324 5.127 7.324 12.451v1.221q-13.672 1.221-16.113 3.662h-13.672q0 2.686-6.104 2.686l-3.662 3.662-6.347-1.221h-3.662l-8.789 4.883h-3.663L417 169.434v-11.231l1.221-1.221-1.221-1.22v-6.104h1.221l2.441 2.442-1.221 1.22v1.221l8.789 1.221q0-2.442 8.545-3.662l-1.22-6.348h7.568v-1.221l-2.441-6.103h1.22zm170.166 213.867q-21.24-34.18-69.58-116.455-30.273-47.363-32.471-54.443h2.686v-1.221h-2.686l-1.22 1.221q-8.545-13.428-8.545-17.578h9.765v2.685h6.348l6.103 1.221 1.221-5.127 6.348 1.221h7.324l7.568-4.883 3.662 2.441h1.221q0-6.103 11.231-8.545l3.662 1.221v-2.441h1.22q8.79 8.3 8.79 14.892-3.174 0-3.663 4.883l3.663 2.441h1.22l-1.22-1.22v-3.662h3.662l33.691 56.64zm161.865-104.248-2.441-2.441h-1.221v2.441zm-16.113-6.103v-2.442l-6.103 1.221v1.221l1.22 1.22zM475.35 169.434h4.882l1.221-1.221h1.465q1.22 11.23 7.324 11.23l1.221-1.22 2.441 7.324v8.789h-4.883v2.441h4.883l.489 177.491H428.23l-5.126-1.221-4.883 1.221-1.221-1.221V184.326q2.93-7.568 10.01-7.568 5.859 0 8.545-2.442h2.441q11.23 5.127 11.231 7.569l3.662-1.221q5.127 1.22 5.127 8.545h1.22l2.442-2.441v-2.442q-4.883-4.638-4.883-7.568h-6.348l-6.103-1.221v-2.441l3.662-3.662h16.113v2.441h5.127v-2.441l-1.465-1.221v-1.221l7.569-3.662zm10.009-2.442h2.442q4.883 1.953 4.883 8.545h-1.221q-6.104-2.441-6.104-8.545m55.909 5.615v2.442h3.662v-2.442zm-68.36 2.93-1.22 6.348v3.662h1.22q3.663-1.22 3.662-7.324zm79.346 5.859v1.221l5.127 1.221h1.221v-1.221l-2.442-2.441zm3.906 3.663v3.662l2.442-2.442v-1.22zm19.776 7.324h3.662l3.662-6.104h-1.221q-3.174 0-6.103 6.104m-6.348 0v1.465h5.127v-1.465zm-140.137 1.953q4.883 5.371 4.883 9.766h1.221q4.638-4.884 7.568-4.883v-2.442q-3.662 0-3.662-2.441zm34.668 2.441q0 5.615-12.451 6.104v6.348h1.221q4.882-5.127 10.009-5.127 0-4.883 3.663-4.883v-2.442zm21.24 7.325v1.22l2.442 2.686h1.22l-1.22-3.906zm-18.798 2.685v2.442h7.568v-2.442zm126.709.733-1.221 3.662v1.22h1.221l2.441-2.441v-2.441zm-150.147 1.709-1.221 1.22v1.221h4.883v-1.221zm13.672 9.765h4.883l2.441-2.441v-1.221q-7.324 1.221-7.324 3.662m134.033 8.301h3.662v-2.441h-1.22zm-161.377 6.592v2.685l2.442 2.442h1.22l-1.22-1.221v-1.221l1.22-1.465v-1.22zm376.709-76.416v-2.442h-1.221l-2.441 2.442zm-225.342 97.168v2.441h1.221l2.441-2.441zm132.569-125-2.442 2.441h-1.22l-2.442-2.441v-4.883zm58.349-78.858v1.221l2.686-2.442v-1.22zM639.656 307.13l2.442 2.441h1.22v-2.441zm12.207-65.674h-1.22v2.441h3.662zm11.719-27.832v2.441l2.441 2.442h1.221v-1.221l-1.221-3.662zm3.906-21.973v1.465h5.127v-1.465zm-7.324-6.103h-1.221l3.662 6.103h3.663q-2.93-6.103-6.104-6.103m23.438-1.221v1.221l2.441 2.441v-3.662zm2.441-4.883-2.441 2.442v1.22h1.22l5.127-1.22v-1.221zm11.23-7.568v2.441h3.663v-2.441zm17.09-46.631q4.639-3.418-2.197-2.93h-13.672v1.221q5.127.488 5.127 3.662v1.221l-1.221 1.221 7.325 5.127h2.441l6.348-1.465v3.906q4.882 0 4.882-7.568h7.569v-1.221q-4.395-.245-9.522-.732l-4.638-2.442zm18.555-23.193v1.465l2.441 2.441 2.442-2.441V99.61l-1.221-1.22zm-35.645 41.015v-.976h-13.671l-2.442-2.442q0-11.23 11.231-12.451l-1.221-1.22q0-3.174 4.883-3.663l-2.442-3.906v-2.441q10.254-19.288 22.461-31.006h-2.685q17.577-34.424 36.133-60.791h74.462q-3.662 10.01-41.015 69.58-13.183 26.123-18.555 26.123 0 7.324-3.662 7.324l-5.127 6.104v-2.442h-3.662v2.442l-6.104 1.22q-4.639.245-11.23.245v2.441l6.103 1.221 2.442-2.442 5.127 2.442q7.324 0 7.324-3.662h2.441v1.22l-9.765 17.334q-.733 4.883-16.113 26.123l-1.221-1.22h-2.686v1.22h2.686q-2.198 7.08-32.471 54.444-48.34 82.275-69.58 116.455v-126.71l33.691-56.641h3.663v3.662l-1.221 1.221h1.221l3.662-2.441q-.49-4.884-3.662-4.883 0-6.593 13.916-21.729h1.22v2.442l3.662-1.221q8.545-1.953 12.207-.977Zm47.852 9.278q-.732-.976-.732-2.686h-3.663l-1.709 1.709zm-10.986-1.221-5.86-1.465v1.221l-14.892-3.906h-7.325v-2.442h-.732l1.465 6.104h7.324l6.348-1.221 1.221 5.127 6.103-1.221h6.348zm-29.785-6.592h-4.639q.488.734.488 1.953h1.221z"/></svg>